<svg xmlns="http://www.w3.org/2000/svg" version="1.1" xmlns:xlink="http://www.w3.org/1999/xlink" xmlns:svgjs="http://svgjs.dev/svgjs" viewBox="0 0 11.794460457575534 4.831867073786473"><g transform="matrix(1,0,0,1,4.685353439271972,0.6872397868932363)"><rect width="11.794460457575534" height="4.831867073786473" x="-4.685353439271972" y="-0.6872397868932362" fill="#000000"></rect><g><path d=" M 0.2085 1.134 L 0.47400000000000003 1.134 C 0.546 1.134 0.6165 1.0724999999999998 0.6165 1.011 L 0.6165 0.702 C 0.6165 0.6375 0.5895 0.6074999999999999 0.54 0.5744999999999999 L 0.2895 0.4019999999999999 C 0.2655 0.3839999999999999 0.261 0.3719999999999999 0.261 0.35099999999999987 L 0.261 0.16649999999999987 L 0.4005 0.16649999999999987 L 0.4005 0.2669999999999999 C 0.4005 0.3059999999999998 0.41250000000000003 0.3194999999999999 0.426 0.3284999999999999 C 0.4515 0.34499999999999986 0.5325 0.4019999999999999 0.5685 0.4019999999999999 C 0.5835 0.4019999999999999 0.6015 0.3839999999999999 0.6015 0.3569999999999999 L 0.6015 0.12449999999999983 C 0.6015 0.06299999999999994 0.543 0.0014999999999998348 0.453 0.0014999999999998348 L 0.2025 0.0014999999999998348 C 0.123 0.0014999999999998348 0.06 0.041999999999999815 0.06 0.11699999999999977 L 0.06 0.41549999999999987 C 0.06 0.48149999999999993 0.0975 0.5129999999999999 0.14100000000000001 0.5429999999999999 L 0.3885 0.714 C 0.40800000000000003 0.7274999999999998 0.41550000000000004 0.7409999999999999 0.41550000000000004 0.7605 L 0.41550000000000004 0.9689999999999999 L 0.261 0.9689999999999999 L 0.261 0.8279999999999998 C 0.261 0.7889999999999999 0.249 0.7754999999999999 0.23550000000000001 0.7665 C 0.2115 0.7484999999999999 0.129 0.6929999999999998 0.099 0.6929999999999998 C 0.078 0.6929999999999998 0.06 0.7094999999999999 0.06 0.7364999999999999 L 0.06 1.011 C 0.06 1.0724999999999998 0.12 1.134 0.2085 1.134 Z M 1.012453857421875 0.7304999999999999 L 1.111453857421875 0.30899999999999983 L 1.183453857421875 0.6389999999999999 Z M 1.463953857421875 0.9494999999999999 C 1.4474538574218752 0.8895 1.262953857421875 0.1529999999999999 1.262953857421875 0.10649999999999982 C 1.262953857421875 0.07799999999999985 1.301953857421875 0.046499999999999764 1.301953857421875 0.02849999999999997 C 1.301953857421875 0.011999999999999789 1.289953857421875 0.0014999999999998348 1.268953857421875 0.0014999999999998348 L 0.958453857421875 0.0014999999999998348 C 0.937453857421875 0.0014999999999998348 0.925453857421875 0.011999999999999789 0.925453857421875 0.02849999999999997 C 0.925453857421875 0.046499999999999764 0.9644538574218751 0.07799999999999985 0.9644538574218751 0.10649999999999982 C 0.9644538574218751 0.1529999999999999 0.760453857421875 0.954 0.748453857421875 1.0005 C 0.734953857421875 1.053 0.676453857421875 1.083 0.676453857421875 1.107 C 0.676453857421875 1.1235 0.688453857421875 1.134 0.7094538574218751 1.134 L 0.9764538574218751 1.134 C 1.000453857421875 1.134 1.010953857421875 1.1219999999999999 1.010953857421875 1.107 C 1.010953857421875 1.083 0.956953857421875 1.0635 0.956953857421875 1.005 L 0.956953857421875 0.9644999999999999 L 1.228453857421875 0.8174999999999999 C 1.228453857421875 0.8174999999999999 1.277953857421875 1.0199999999999998 1.277953857421875 1.0305 C 1.277953857421875 1.0665 1.238953857421875 1.083 1.238953857421875 1.107 C 1.238953857421875 1.1219999999999999 1.249453857421875 1.134 1.273453857421875 1.134 L 1.519453857421875 1.134 C 1.5404538574218751 1.134 1.5524538574218751 1.1235 1.5524538574218751 1.107 C 1.5524538574218751 1.083 1.487953857421875 1.041 1.463953857421875 0.9494999999999999 Z M 1.8928681640625 1.134 C 1.9168681640625 1.134 1.9348681640625 1.119 1.9348681640625 1.0964999999999998 C 1.9348681640625 1.0619999999999998 1.8703681640625 1.0259999999999998 1.8703681640625 0.9944999999999999 L 1.8703681640625 0.5009999999999999 L 2.1733681640625 1.0919999999999999 C 2.1868681640625 1.119 2.1973681640625 1.134 2.2378681640625 1.134 L 2.3323681640625002 1.134 C 2.3653681640625 1.134 2.3863681640625 1.113 2.3863681640625 1.0815 L 2.3863681640625 0.1529999999999999 C 2.3863681640625 0.09299999999999997 2.4508681640625003 0.058499999999999774 2.4508681640625003 0.026999999999999913 C 2.4508681640625003 0.013499999999999845 2.4388681640625 0.0014999999999998348 2.4178681640625 0.0014999999999998348 L 2.1613681640625 0.0014999999999998348 C 2.1403681640625 0.0014999999999998348 2.1283681640625 0.013499999999999845 2.1283681640625 0.026999999999999913 C 2.1283681640625 0.058499999999999774 2.1928681640625003 0.09299999999999997 2.1928681640625003 0.1529999999999999 L 2.1928681640625003 0.6839999999999999 L 1.8913681640625 0.04799999999999982 C 1.8823681640625 0.026999999999999913 1.8718681640625001 0.0014999999999998348 1.8253681640625001 0.0014999999999998348 L 1.6453681640625 0.0014999999999998348 C 1.6243681640625 0.0014999999999998348 1.6123681640625 0.013499999999999845 1.6123681640625 0.026999999999999913 C 1.6123681640625 0.058499999999999774 1.6768681640625 0.09299999999999997 1.6768681640625 0.1529999999999999 L 1.6768681640625 0.9824999999999999 C 1.6768681640625 1.0425 1.6123681640625 1.077 1.6123681640625 1.1084999999999998 C 1.6123681640625 1.1219999999999999 1.6243681640625 1.134 1.6453681640625 1.134 Z M 2.79136669921875 0.9689999999999999 L 2.79136669921875 0.16649999999999987 L 2.93386669921875 0.16649999999999987 C 2.94586669921875 0.16649999999999987 2.95486669921875 0.17549999999999988 2.95486669921875 0.1874999999999999 L 2.95486669921875 0.948 C 2.95486669921875 0.9659999999999999 2.95036669921875 0.9689999999999999 2.93386669921875 0.9689999999999999 Z M 3.01336669921875 1.134 C 3.09436669921875 1.134 3.15586669921875 1.0935 3.15586669921875 1.017 L 3.15586669921875 0.1439999999999999 C 3.15586669921875 0.05249999999999977 3.10336669921875 0.0014999999999998348 2.99236669921875 0.0014999999999998348 L 2.55886669921875 0.0014999999999998348 C 2.5378666992187497 0.0014999999999998348 2.5258666992187497 0.013499999999999845 2.5258666992187497 0.026999999999999913 C 2.5258666992187497 0.058499999999999774 2.59036669921875 0.09299999999999997 2.59036669921875 0.1529999999999999 L 2.59036669921875 0.9824999999999999 C 2.59036669921875 1.0425 2.5258666992187497 1.077 2.5258666992187497 1.1084999999999998 C 2.5258666992187497 1.1219999999999999 2.5378666992187497 1.134 2.55886669921875 1.134 Z M 3.78880810546875 1.134 C 3.82480810546875 1.134 3.83980810546875 1.119 3.83980810546875 1.083 L 3.83980810546875 0.7665 C 3.83980810546875 0.7499999999999999 3.82630810546875 0.7379999999999999 3.81430810546875 0.7379999999999999 C 3.79630810546875 0.7379999999999999 3.67930810546875 0.8174999999999999 3.65530810546875 0.8354999999999999 C 3.64330810546875 0.8444999999999999 3.63880810546875 0.8519999999999999 3.63880810546875 0.8744999999999998 L 3.63880810546875 0.9689999999999999 L 3.51580810546875 0.9689999999999999 C 3.50530810546875 0.9689999999999999 3.49630810546875 0.9614999999999999 3.49630810546875 0.9509999999999998 L 3.49630810546875 0.7829999999999999 L 3.66880810546875 0.6734999999999999 C 3.69130810546875 0.6599999999999999 3.69730810546875 0.6479999999999999 3.69730810546875 0.6224999999999998 L 3.69730810546875 0.48449999999999993 C 3.69730810546875 0.46799999999999986 3.6868081054687503 0.45299999999999985 3.66880810546875 0.45299999999999985 C 3.65680810546875 0.45299999999999985 3.64330810546875 0.45899999999999985 3.62980810546875 0.46799999999999986 L 3.49630810546875 0.5519999999999999 L 3.49630810546875 0.1844999999999999 C 3.49630810546875 0.17549999999999988 3.50530810546875 0.16649999999999987 3.51580810546875 0.16649999999999987 L 3.63880810546875 0.16649999999999987 L 3.63880810546875 0.3314999999999999 C 3.63880810546875 0.34799999999999986 3.65230810546875 0.3599999999999999 3.6643081054687503 0.3599999999999999 C 3.68230810546875 0.3599999999999999 3.79930810546875 0.28049999999999986 3.82330810546875 0.26249999999999984 C 3.83530810546875 0.25349999999999984 3.83980810546875 0.24599999999999989 3.83980810546875 0.22349999999999992 L 3.83980810546875 0.05249999999999977 C 3.83980810546875 0.01649999999999996 3.82480810546875 0.0014999999999998348 3.78880810546875 0.0014999999999998348 L 3.26380810546875 0.0014999999999998348 C 3.24280810546875 0.0014999999999998348 3.23080810546875 0.013499999999999845 3.23080810546875 0.026999999999999913 C 3.23080810546875 0.058499999999999774 3.29530810546875 0.09299999999999997 3.29530810546875 0.1529999999999999 L 3.29530810546875 0.9824999999999999 C 3.29530810546875 1.0425 3.23080810546875 1.077 3.23080810546875 1.1084999999999998 C 3.23080810546875 1.1219999999999999 3.24280810546875 1.134 3.26380810546875 1.134 Z M 4.3737216796875 0.16649999999999987 C 4.3887216796875 0.16649999999999987 4.3947216796875 0.17249999999999988 4.3947216796875 0.18599999999999983 L 4.3947216796875 0.44099999999999984 C 4.3947216796875 0.4514999999999999 4.3917216796875005 0.4634999999999999 4.3587216796875 0.4859999999999999 L 4.2102216796875 0.5879999999999999 L 4.2102216796875 0.16649999999999987 Z M 4.5942216796875 0.9989999999999999 C 4.5837216796875 0.9794999999999999 4.5207216796875 0.8204999999999999 4.4592216796875 0.6435 C 4.5282216796875 0.5999999999999999 4.5957216796875 0.5609999999999998 4.5957216796875 0.49649999999999983 L 4.5957216796875 0.1439999999999999 C 4.5957216796875 0.04499999999999993 4.5327216796875005 -2.220446049250313e-16 4.4322216796875 -2.220446049250313e-16 L 3.9777216796875003 0.0014999999999998348 C 3.9567216796875 0.0014999999999998348 3.9447216796875 0.013499999999999845 3.9447216796875 0.026999999999999913 C 3.9447216796875 0.058499999999999774 4.0092216796875 0.09299999999999997 4.0092216796875 0.1529999999999999 L 4.0092216796875 0.9824999999999999 C 4.0092216796875 1.0425 3.9447216796875 1.077 3.9447216796875 1.1084999999999998 C 3.9447216796875 1.1219999999999999 3.9567216796875 1.134 3.9777216796875003 1.134 L 4.2417216796875 1.134 C 4.2627216796875 1.134 4.2747216796875005 1.1219999999999999 4.2747216796875005 1.1084999999999998 C 4.2747216796875005 1.077 4.2102216796875 1.0425 4.2102216796875 0.9824999999999999 L 4.2102216796875 0.8144999999999999 C 4.2102216796875 0.8054999999999999 4.2117216796875 0.8009999999999999 4.2162216796875 0.7979999999999998 L 4.2717216796875 0.7634999999999998 C 4.2717216796875 0.7634999999999998 4.3767216796875 1.0319999999999998 4.3767216796875 1.0485 C 4.3767216796875 1.0815 4.3422216796875 1.0859999999999999 4.3422216796875 1.1084999999999998 C 4.3422216796875 1.1219999999999999 4.3557216796875 1.134 4.3767216796875 1.134 L 4.6362216796875 1.134 C 4.652721679687501 1.134 4.6677216796875 1.1219999999999999 4.6677216796875 1.1084999999999998 C 4.6677216796875 1.0755 4.6392216796875 1.0784999999999998 4.5942216796875 0.9989999999999999 Z M 4.906166015625 1.134 L 5.171666015625 1.134 C 5.243666015625 1.134 5.314166015625 1.0724999999999998 5.314166015625 1.011 L 5.314166015625 0.702 C 5.314166015625 0.6375 5.287166015625 0.6074999999999999 5.237666015625 0.5744999999999999 L 4.987166015625 0.4019999999999999 C 4.963166015625 0.3839999999999999 4.958666015625 0.3719999999999999 4.958666015625 0.35099999999999987 L 4.958666015625 0.16649999999999987 L 5.098166015625 0.16649999999999987 L 5.098166015625 0.2669999999999999 C 5.098166015625 0.3059999999999998 5.1101660156249995 0.3194999999999999 5.123666015625 0.3284999999999999 C 5.149166015625 0.34499999999999986 5.230166015625 0.4019999999999999 5.266166015625 0.4019999999999999 C 5.281166015625 0.4019999999999999 5.299166015625 0.3839999999999999 5.299166015625 0.3569999999999999 L 5.299166015625 0.12449999999999983 C 5.299166015625 0.06299999999999994 5.240666015625 0.0014999999999998348 5.150666015625 0.0014999999999998348 L 4.9001660156249995 0.0014999999999998348 C 4.820666015625 0.0014999999999998348 4.7576660156249995 0.041999999999999815 4.7576660156249995 0.11699999999999977 L 4.7576660156249995 0.41549999999999987 C 4.7576660156249995 0.48149999999999993 4.795166015625 0.5129999999999999 4.838666015625 0.5429999999999999 L 5.0861660156249995 0.714 C 5.105666015625 0.7274999999999998 5.113166015625 0.7409999999999999 5.113166015625 0.7605 L 5.113166015625 0.9689999999999999 L 4.958666015625 0.9689999999999999 L 4.958666015625 0.8279999999999998 C 4.958666015625 0.7889999999999999 4.9466660156249995 0.7754999999999999 4.933166015625 0.7665 C 4.909166015625 0.7484999999999999 4.826666015624999 0.6929999999999998 4.796666015625 0.6929999999999998 C 4.775666015625 0.6929999999999998 4.7576660156249995 0.7094999999999999 4.7576660156249995 0.7364999999999999 L 4.7576660156249995 1.011 C 4.7576660156249995 1.0724999999999998 4.817666015625 1.134 4.906166015625 1.134 Z M 0.2955 2.481 L 0.2955 1.6784999999999999 L 0.438 1.6784999999999999 C 0.45 1.6784999999999999 0.459 1.6875 0.459 1.6995 L 0.459 2.46 C 0.459 2.4779999999999998 0.4545 2.481 0.438 2.481 Z M 0.5175 2.646 C 0.5985 2.646 0.66 2.6054999999999997 0.66 2.529 L 0.66 1.656 C 0.66 1.5644999999999998 0.6075 1.5134999999999998 0.4965 1.5134999999999998 L 0.063 1.5134999999999998 C 0.042 1.5134999999999998 0.03 1.5254999999999999 0.03 1.539 C 0.03 1.5704999999999998 0.0945 1.605 0.0945 1.665 L 0.0945 2.4945 C 0.0945 2.5545 0.03 2.589 0.03 2.6205 C 0.03 2.634 0.042 2.646 0.063 2.646 Z M 1.29294140625 2.646 C 1.32894140625 2.646 1.34394140625 2.631 1.34394140625 2.5949999999999998 L 1.34394140625 2.2784999999999997 C 1.34394140625 2.262 1.33044140625 2.25 1.31844140625 2.25 C 1.30044140625 2.25 1.18344140625 2.3295 1.15944140625 2.3475 C 1.14744140625 2.3565 1.14294140625 2.364 1.14294140625 2.3865 L 1.14294140625 2.481 L 1.01994140625 2.481 C 1.0094414062500001 2.481 1.00044140625 2.4735 1.00044140625 2.463 L 1.00044140625 2.295 L 1.17294140625 2.1854999999999998 C 1.19544140625 2.1719999999999997 1.20144140625 2.16 1.20144140625 2.1345 L 1.20144140625 1.9965 C 1.20144140625 1.98 1.19094140625 1.9649999999999999 1.17294140625 1.9649999999999999 C 1.16094140625 1.9649999999999999 1.14744140625 1.9709999999999999 1.13394140625 1.98 L 1.00044140625 2.064 L 1.00044140625 1.6965 C 1.00044140625 1.6875 1.0094414062500001 1.6784999999999999 1.01994140625 1.6784999999999999 L 1.14294140625 1.6784999999999999 L 1.14294140625 1.8435 C 1.14294140625 1.8599999999999999 1.15644140625 1.8719999999999999 1.16844140625 1.8719999999999999 C 1.18644140625 1.8719999999999999 1.3034414062500002 1.7925 1.3274414062500002 1.7744999999999997 C 1.3394414062500002 1.7654999999999998 1.34394140625 1.758 1.34394140625 1.7355 L 1.34394140625 1.5644999999999998 C 1.34394140625 1.5285 1.32894140625 1.5134999999999998 1.29294140625 1.5134999999999998 L 0.7679414062500001 1.5134999999999998 C 0.74694140625 1.5134999999999998 0.73494140625 1.5254999999999999 0.73494140625 1.539 C 0.73494140625 1.5704999999999998 0.79944140625 1.605 0.79944140625 1.665 L 0.79944140625 2.4945 C 0.79944140625 2.5545 0.73494140625 2.589 0.73494140625 2.6205 C 0.73494140625 2.634 0.74694140625 2.646 0.7679414062500001 2.646 Z M 1.85535498046875 1.6784999999999999 C 1.9483549804687499 1.6784999999999999 1.9483549804687499 1.6875 1.9783549804687501 1.7205 C 2.00385498046875 1.7504999999999997 2.01585498046875 1.7624999999999997 2.03535498046875 1.7624999999999997 C 2.05935498046875 1.7624999999999997 2.0758549804687503 1.746 2.0758549804687503 1.722 L 2.0758549804687503 1.539 C 2.0758549804687503 1.515 2.05935498046875 1.4999999999999998 2.03535498046875 1.4999999999999998 C 2.02635498046875 1.4999999999999998 2.01135498046875 1.5014999999999998 1.98585498046875 1.5045 C 1.9558549804687502 1.509 1.91685498046875 1.5134999999999998 1.89285498046875 1.5134999999999998 L 1.61685498046875 1.5134999999999998 C 1.51035498046875 1.5134999999999998 1.49085498046875 1.4999999999999998 1.46685498046875 1.4999999999999998 C 1.44285498046875 1.4999999999999998 1.43385498046875 1.5105 1.43385498046875 1.5345 L 1.43385498046875 1.7309999999999999 C 1.43385498046875 1.7489999999999999 1.44435498046875 1.7624999999999997 1.46085498046875 1.7624999999999997 C 1.48185498046875 1.7624999999999997 1.49535498046875 1.7475 1.52835498046875 1.7189999999999999 C 1.56135498046875 1.6905 1.57035498046875 1.6784999999999999 1.65435498046875 1.6784999999999999 L 1.65435498046875 2.4945 C 1.65435498046875 2.5545 1.58985498046875 2.589 1.58985498046875 2.6205 C 1.58985498046875 2.634 1.60185498046875 2.646 1.62285498046875 2.646 L 1.88685498046875 2.646 C 1.9078549804687501 2.646 1.9198549804687501 2.634 1.9198549804687501 2.6205 C 1.9198549804687501 2.589 1.85535498046875 2.5545 1.85535498046875 2.4945 Z M 2.362278076171875 2.2424999999999997 L 2.461278076171875 1.8209999999999997 L 2.533278076171875 2.151 Z M 2.813778076171875 2.4615 C 2.797278076171875 2.4015 2.612778076171875 1.665 2.612778076171875 1.6184999999999998 C 2.612778076171875 1.5899999999999999 2.6517780761718748 1.5584999999999998 2.6517780761718748 1.5405 C 2.6517780761718748 1.5239999999999998 2.6397780761718748 1.5134999999999998 2.618778076171875 1.5134999999999998 L 2.308278076171875 1.5134999999999998 C 2.2872780761718747 1.5134999999999998 2.275278076171875 1.5239999999999998 2.275278076171875 1.5405 C 2.275278076171875 1.5584999999999998 2.314278076171875 1.5899999999999999 2.314278076171875 1.6184999999999998 C 2.314278076171875 1.665 2.110278076171875 2.4659999999999997 2.098278076171875 2.5124999999999997 C 2.084778076171875 2.565 2.026278076171875 2.5949999999999998 2.026278076171875 2.6189999999999998 C 2.026278076171875 2.6355 2.038278076171875 2.646 2.059278076171875 2.646 L 2.326278076171875 2.646 C 2.350278076171875 2.646 2.360778076171875 2.634 2.360778076171875 2.6189999999999998 C 2.360778076171875 2.5949999999999998 2.306778076171875 2.5755 2.306778076171875 2.517 L 2.306778076171875 2.4764999999999997 L 2.578278076171875 2.3295 C 2.578278076171875 2.3295 2.627778076171875 2.532 2.627778076171875 2.5425 C 2.627778076171875 2.5785 2.588778076171875 2.5949999999999998 2.588778076171875 2.6189999999999998 C 2.588778076171875 2.634 2.599278076171875 2.646 2.623278076171875 2.646 L 2.869278076171875 2.646 C 2.890278076171875 2.646 2.902278076171875 2.6355 2.902278076171875 2.6189999999999998 C 2.902278076171875 2.5949999999999998 2.837778076171875 2.553 2.813778076171875 2.4615 Z M 3.2276923828125 1.665 C 3.2276923828125 1.605 3.2921923828125 1.5704999999999998 3.2921923828125 1.539 C 3.2921923828125 1.5254999999999999 3.2801923828125 1.5134999999999998 3.2591923828125 1.5134999999999998 L 2.9951923828125 1.5134999999999998 C 2.9741923828125 1.5134999999999998 2.9621923828125 1.5254999999999999 2.9621923828125 1.539 C 2.9621923828125 1.5704999999999998 3.0266923828125 1.605 3.0266923828125 1.665 L 3.0266923828125 2.4945 C 3.0266923828125 2.5545 2.9621923828125 2.589 2.9621923828125 2.6205 C 2.9621923828125 2.634 2.9741923828125 2.646 2.9951923828125 2.646 L 3.2591923828125 2.646 C 3.2801923828125 2.646 3.2921923828125 2.634 3.2921923828125 2.6205 C 3.2921923828125 2.589 3.2276923828125 2.5545 3.2276923828125 2.4945 Z M 3.6326154785156253 2.481 L 3.6326154785156253 1.665 C 3.6326154785156253 1.605 3.697115478515625 1.5704999999999998 3.697115478515625 1.539 C 3.697115478515625 1.5254999999999999 3.685115478515625 1.5134999999999998 3.664115478515625 1.5134999999999998 L 3.4001154785156253 1.5134999999999998 C 3.379115478515625 1.5134999999999998 3.367115478515625 1.5254999999999999 3.367115478515625 1.539 C 3.367115478515625 1.5704999999999998 3.431615478515625 1.605 3.431615478515625 1.665 L 3.431615478515625 2.4945 C 3.431615478515625 2.5545 3.367115478515625 2.589 3.367115478515625 2.6205 C 3.367115478515625 2.634 3.379115478515625 2.646 3.4001154785156253 2.646 L 3.874115478515625 2.646 C 3.910115478515625 2.646 3.9251154785156253 2.631 3.9251154785156253 2.5949999999999998 L 3.9251154785156253 2.2784999999999997 C 3.9251154785156253 2.262 3.911615478515625 2.25 3.899615478515625 2.25 C 3.8816154785156254 2.25 3.7646154785156254 2.3295 3.7406154785156254 2.3475 C 3.7286154785156254 2.3565 3.724115478515625 2.364 3.724115478515625 2.3865 L 3.724115478515625 2.481 Z M 4.250581787109375 1.665 C 4.250581787109375 1.605 4.315081787109375 1.5704999999999998 4.315081787109375 1.539 C 4.315081787109375 1.5254999999999999 4.303081787109376 1.5134999999999998 4.282081787109376 1.5134999999999998 L 4.0180817871093755 1.5134999999999998 C 3.997081787109375 1.5134999999999998 3.985081787109375 1.5254999999999999 3.985081787109375 1.539 C 3.985081787109375 1.5704999999999998 4.049581787109375 1.605 4.049581787109375 1.665 L 4.049581787109375 2.4945 C 4.049581787109375 2.5545 3.985081787109375 2.589 3.985081787109375 2.6205 C 3.985081787109375 2.634 3.997081787109375 2.646 4.0180817871093755 2.646 L 4.282081787109376 2.646 C 4.303081787109376 2.646 4.315081787109375 2.634 4.315081787109375 2.6205 C 4.315081787109375 2.589 4.250581787109375 2.5545 4.250581787109375 2.4945 Z M 4.670504882812501 2.646 C 4.694504882812501 2.646 4.7125048828125005 2.631 4.7125048828125005 2.6085 C 4.7125048828125005 2.574 4.648004882812501 2.538 4.648004882812501 2.5065 L 4.648004882812501 2.013 L 4.951004882812501 2.604 C 4.9645048828125 2.631 4.975004882812501 2.646 5.0155048828125 2.646 L 5.1100048828125 2.646 C 5.143004882812501 2.646 5.164004882812501 2.625 5.164004882812501 2.5934999999999997 L 5.164004882812501 1.665 C 5.164004882812501 1.605 5.2285048828125005 1.5704999999999998 5.2285048828125005 1.539 C 5.2285048828125005 1.5254999999999999 5.216504882812501 1.5134999999999998 5.1955048828125 1.5134999999999998 L 4.9390048828125 1.5134999999999998 C 4.9180048828125 1.5134999999999998 4.906004882812501 1.5254999999999999 4.906004882812501 1.539 C 4.906004882812501 1.5704999999999998 4.9705048828125005 1.605 4.9705048828125005 1.665 L 4.9705048828125005 2.1959999999999997 L 4.669004882812501 1.5599999999999998 C 4.6600048828125 1.539 4.649504882812501 1.5134999999999998 4.603004882812501 1.5134999999999998 L 4.4230048828125 1.5134999999999998 C 4.4020048828125 1.5134999999999998 4.390004882812501 1.5254999999999999 4.390004882812501 1.539 C 4.390004882812501 1.5704999999999998 4.4545048828125005 1.605 4.4545048828125005 1.665 L 4.4545048828125005 2.4945 C 4.4545048828125005 2.5545 4.390004882812501 2.589 4.390004882812501 2.6205 C 4.390004882812501 2.634 4.4020048828125 2.646 4.4230048828125 2.646 Z M 5.69650341796875 1.8704999999999998 C 5.69650341796875 1.887 5.71000341796875 1.899 5.72200341796875 1.899 C 5.74000341796875 1.899 5.85700341796875 1.8195 5.88100341796875 1.8014999999999999 C 5.8930034179687505 1.7925 5.89750341796875 1.785 5.89750341796875 1.7624999999999997 L 5.89750341796875 1.6335 C 5.89750341796875 1.5719999999999998 5.83750341796875 1.5119999999999998 5.74900341796875 1.5119999999999998 L 5.47600341796875 1.5119999999999998 C 5.39500341796875 1.5119999999999998 5.33350341796875 1.551 5.33350341796875 1.626 L 5.33350341796875 2.532 C 5.33350341796875 2.6069999999999998 5.39500341796875 2.646 5.47600341796875 2.646 L 5.77150341796875 2.646 C 5.86300341796875 2.646 5.92000341796875 2.5829999999999997 5.92000341796875 2.526 L 5.92000341796875 2.0324999999999998 C 5.92000341796875 2.013 5.90950341796875 2.001 5.89150341796875 2.001 C 5.86300341796875 2.001 5.70100341796875 2.0715 5.66500341796875 2.0895 C 5.64700341796875 2.0985 5.6365034179687505 2.1075 5.6365034179687505 2.1285 L 5.6365034179687505 2.262 C 5.6365034179687505 2.2815 5.64850341796875 2.2935 5.66200341796875 2.2935 C 5.6830034179687505 2.2935 5.71900341796875 2.2755 5.71900341796875 2.2755 L 5.71900341796875 2.481 L 5.55400341796875 2.481 C 5.543503417968751 2.481 5.53450341796875 2.472 5.53450341796875 2.4615 L 5.53450341796875 1.698 C 5.53450341796875 1.6875 5.543503417968751 1.6784999999999999 5.55400341796875 1.6784999999999999 L 5.69650341796875 1.6784999999999999 Z" fill="#ffffff" fill-rule="nonzero"></path></g><g><path d=" M 0.040625 3.4573875000000003 L 0.040625 3.4473875000000005 L 0.090625 3.4223875 L 0.090625 3.0798875000000003 L 0.040625 3.0548875000000004 L 0.040625 3.0448875 L 0.22375 3.0448875 Q 0.2925 3.0448875 0.34125 3.0692625000000002 Q 0.39 3.0936375000000003 0.41531250000000003 3.1361375000000002 Q 0.440625 3.1786375000000002 0.440625 3.2323875 Q 0.440625 3.2811375000000003 0.4240625 3.3223875000000005 Q 0.40750000000000003 3.3636375000000003 0.3775 3.3936375 Q 0.34750000000000003 3.4236375000000003 0.3071875 3.4405125 Q 0.26687500000000003 3.4573875000000003 0.21937500000000001 3.4573875000000003 L 0.040625 3.4573875000000003 Z M 0.209375 3.0792625000000005 L 0.146875 3.0792625000000005 L 0.146875 3.4230125000000005 L 0.21875 3.4230125000000005 Q 0.26875 3.4230125000000005 0.3053125 3.4020750000000004 Q 0.341875 3.3811375000000004 0.3615625 3.3427000000000002 Q 0.38125000000000003 3.3042625 0.38125000000000003 3.2517625000000003 Q 0.38125000000000003 3.1998875000000004 0.36125 3.1608250000000004 Q 0.34125 3.1217625000000004 0.3028125 3.1005125000000002 Q 0.264375 3.0792625000000005 0.209375 3.0792625000000005 Z M 0.5312271118164061 3.4573875000000003 L 0.5312271118164061 3.4473875000000005 L 0.5812271118164062 3.4223875 L 0.5812271118164062 3.0798875000000003 L 0.5312271118164061 3.0548875000000004 L 0.5312271118164061 3.0448875 L 0.6924771118164061 3.0448875 Q 0.7581021118164062 3.0448875 0.7959146118164062 3.0720750000000003 Q 0.8337271118164062 3.0992625 0.8337271118164062 3.1467625000000004 Q 0.8337271118164062 3.1817625000000005 0.8099771118164062 3.209575 Q 0.7862271118164061 3.2373875 0.7468521118164062 3.2517625000000003 L 0.8656021118164061 3.4248875 L 0.9068521118164061 3.4473875000000005 L 0.9068521118164061 3.4573875000000003 L 0.8168521118164062 3.4573875000000003 L 0.6956021118164062 3.2680125 L 0.6374771118164062 3.2680125 L 0.6374771118164062 3.4217625000000003 L 0.6843521118164062 3.4473875000000005 L 0.6843521118164062 3.4573875000000003 L 0.5312271118164061 3.4573875000000003 Z M 0.6781021118164061 3.0792625000000005 L 0.6374771118164062 3.0792625000000005 L 0.6374771118164062 3.2336375000000004 L 0.6818521118164061 3.2336375000000004 Q 0.7212271118164062 3.2336375000000004 0.7471646118164061 3.21145 Q 0.7731021118164062 3.1892625000000003 0.7731021118164062 3.1548875 Q 0.7731021118164062 3.1198875000000004 0.7474771118164062 3.099575 Q 0.7218521118164062 3.0792625000000005 0.6781021118164061 3.0792625000000005 Z M 0.9536956787109374 3.4573875000000003 L 0.9536956787109374 3.4473875000000005 L 1.0036956787109375 3.4223875 L 1.0036956787109375 3.0798875000000003 L 0.9536956787109374 3.0548875000000004 L 0.9536956787109374 3.0448875 L 1.1099456787109374 3.0448875 L 1.1099456787109374 3.0548875000000004 L 1.0599456787109374 3.0798875000000003 L 1.0599456787109374 3.4223875 L 1.1099456787109374 3.4473875000000005 L 1.1099456787109374 3.4573875000000003 L 0.9536956787109374 3.4573875000000003 Z M 1.3824166870117187 3.4605125 L 1.2249166870117187 3.0767625 L 1.1817916870117189 3.0548875000000004 L 1.1817916870117189 3.0448875 L 1.3380416870117189 3.0448875 L 1.3380416870117189 3.0548875000000004 L 1.2842916870117187 3.0780125000000003 L 1.2842916870117187 3.0811375 L 1.4011666870117188 3.3673875000000004 L 1.4042916870117188 3.3673875000000004 L 1.5205416870117188 3.0786375 L 1.5205416870117188 3.0761375 L 1.4692916870117188 3.0548875000000004 L 1.4692916870117188 3.0448875 L 1.6005416870117188 3.0448875 L 1.6005416870117188 3.0548875000000004 L 1.5649166870117188 3.0736375000000002 L 1.4042916870117188 3.4605125 L 1.3824166870117187 3.4605125 Z M 1.6692855834960936 3.4573875000000003 L 1.6692855834960936 3.4473875000000005 L 1.7192855834960936 3.4223875 L 1.7192855834960936 3.0798875000000003 L 1.6692855834960936 3.0548875000000004 L 1.6692855834960936 3.0448875 L 1.9749105834960936 3.0448875 L 1.9749105834960936 3.1523875 L 1.9649105834960936 3.1523875 L 1.9261605834960935 3.0792625000000005 L 1.7755355834960938 3.0792625000000005 L 1.7755355834960938 3.2273875000000003 L 1.8817855834960937 3.2273875000000003 L 1.9130355834960937 3.1755125000000004 L 1.9230355834960937 3.1755125000000004 L 1.9230355834960937 3.3123875000000003 L 1.9130355834960937 3.3123875000000003 L 1.8817855834960937 3.2617625 L 1.7755355834960938 3.2617625 L 1.7755355834960938 3.4230125000000005 L 1.9436605834960936 3.4230125000000005 L 1.9824105834960937 3.3436375000000003 L 1.9924105834960937 3.3436375000000003 L 1.9924105834960937 3.4573875000000003 L 1.6692855834960936 3.4573875000000003 Z M 2.0798965454101563 3.4573875000000003 L 2.0798965454101563 3.4473875000000005 L 2.129896545410156 3.4223875 L 2.129896545410156 3.0811375 L 2.080521545410156 3.0548875000000004 L 2.080521545410156 3.0448875 L 2.172396545410156 3.0448875 L 2.411146545410156 3.3448875000000005 L 2.411146545410156 3.0786375 L 2.348646545410156 3.0548875000000004 L 2.348646545410156 3.0448875 L 2.5042715454101563 3.0448875 L 2.5042715454101563 3.0548875000000004 L 2.4548965454101563 3.0792625000000005 L 2.4548965454101563 3.4605125 L 2.4317715454101565 3.4605125 L 2.1736465454101563 3.1348875000000005 L 2.1736465454101563 3.4230125000000005 L 2.2361465454101563 3.4473875000000005 L 2.2361465454101563 3.4573875000000003 L 2.0798965454101563 3.4573875000000003 Z M 2.7510772705078126 3.4573875000000003 L 2.7510772705078126 3.4473875000000005 L 2.801077270507813 3.4223875 L 2.801077270507813 3.0798875000000003 L 2.7510772705078126 3.0548875000000004 L 2.7510772705078126 3.0448875 L 2.9092022705078127 3.0448875 Q 2.950452270507813 3.0448875 2.983264770507813 3.0552 Q 3.0160772705078127 3.0655125 3.0348272705078125 3.0858250000000003 Q 3.053577270507813 3.1061375000000004 3.053577270507813 3.1373875000000004 Q 3.053577270507813 3.1692625000000003 3.0323272705078126 3.195825 Q 3.011077270507813 3.2223875000000004 2.971077270507813 3.2336375000000004 Q 3.026702270507813 3.2411375000000002 3.057952270507813 3.2683250000000004 Q 3.089202270507813 3.2955125 3.089202270507813 3.3373875 Q 3.089202270507813 3.3717625000000004 3.067639770507813 3.39895 Q 3.0460772705078125 3.4261375000000003 3.008577270507813 3.4417625000000003 Q 2.971077270507813 3.4573875000000003 2.9235772705078125 3.4573875000000003 L 2.7510772705078126 3.4573875000000003 Z M 2.894827270507813 3.0792625000000005 L 2.8573272705078128 3.0792625000000005 L 2.8573272705078128 3.2273875000000003 L 2.8985772705078126 3.2273875000000003 Q 2.9429522705078126 3.2273875000000003 2.9679522705078125 3.2083250000000003 Q 2.992952270507813 3.1892625000000003 2.992952270507813 3.1548875 Q 2.992952270507813 3.0792625000000005 2.894827270507813 3.0792625000000005 Z M 2.9185772705078126 3.2617625 L 2.8573272705078128 3.2617625 L 2.8573272705078128 3.4230125000000005 L 2.9229522705078126 3.4230125000000005 Q 2.9723272705078125 3.4230125000000005 3.0004522705078127 3.4005125000000005 Q 3.028577270507813 3.3780125 3.028577270507813 3.3423875 Q 3.028577270507813 3.2998875 3.0001397705078126 3.280825 Q 2.9717022705078127 3.2617625 2.9185772705078126 3.2617625 Z M 3.251658325195313 3.4573875000000003 L 3.251658325195313 3.4473875000000005 L 3.3079083251953127 3.4223875 L 3.3079083251953127 3.2648875000000004 L 3.169158325195313 3.0755125000000003 L 3.131033325195313 3.0548875000000004 L 3.131033325195313 3.0448875 L 3.282283325195313 3.0448875 L 3.282283325195313 3.0548875000000004 L 3.2366583251953127 3.0767625 L 3.2366583251953127 3.0792625000000005 L 3.3485333251953127 3.2311375000000004 L 3.4491583251953126 3.0798875000000003 L 3.4491583251953126 3.0773875000000004 L 3.403533325195313 3.0548875000000004 L 3.403533325195313 3.0448875 L 3.5360333251953127 3.0448875 L 3.5360333251953127 3.0548875000000004 L 3.4960333251953126 3.0755125000000003 L 3.3641583251953127 3.2642625 L 3.3641583251953127 3.4223875 L 3.4204083251953126 3.4473875000000005 L 3.4204083251953126 3.4573875000000003 L 3.251658325195313 3.4573875000000003 Z M 3.7672180175781254 3.4573875000000003 L 3.7672180175781254 3.4473875000000005 L 3.8172180175781256 3.4223875 L 3.8172180175781256 3.0798875000000003 L 3.7672180175781254 3.0548875000000004 L 3.7672180175781254 3.0448875 L 3.9297180175781254 3.0448875 Q 4.003468017578125 3.0448875 4.048155517578126 3.0717625 Q 4.092843017578126 3.0986375 4.092843017578126 3.1567625 Q 4.092843017578126 3.1911375000000004 4.069405517578126 3.2177000000000002 Q 4.045968017578126 3.2442625000000005 4.005655517578125 3.2598875000000005 Q 3.9653430175781255 3.2755125000000005 3.9147180175781253 3.2755125000000005 L 3.8734680175781255 3.2755125000000005 L 3.8734680175781255 3.4223875 L 3.9297180175781254 3.4473875000000005 L 3.9297180175781254 3.4573875000000003 L 3.7672180175781254 3.4573875000000003 Z M 3.8734680175781255 3.0792625000000005 L 3.8734680175781255 3.2411375000000002 L 3.9265930175781256 3.2411375000000002 Q 3.9759680175781256 3.2411375000000002 4.004093017578126 3.2189500000000004 Q 4.032218017578125 3.1967625 4.032218017578125 3.1617625 Q 4.032218017578125 3.1180125000000003 4.003780517578125 3.0986375 Q 3.9753430175781252 3.0792625000000005 3.9222180175781256 3.0792625000000005 L 3.8734680175781255 3.0792625000000005 Z M 4.102169494628907 3.4573875000000003 L 4.102169494628907 3.4473875000000005 L 4.142169494628907 3.4267625 L 4.302169494628907 3.0417625000000004 L 4.330294494628907 3.0417625000000004 L 4.487794494628907 3.4248875 L 4.529669494628907 3.4473875000000005 L 4.529669494628907 3.4573875000000003 L 4.374669494628907 3.4573875000000003 L 4.374669494628907 3.4473875000000005 L 4.429669494628907 3.4261375000000003 L 4.382794494628907 3.3105125 L 4.230919494628907 3.3105125 L 4.184669494628907 3.4261375000000003 L 4.2371694946289065 3.4473875000000005 L 4.2371694946289065 3.4573875000000003 L 4.102169494628907 3.4573875000000003 Z M 4.245294494628907 3.2761375000000004 L 4.369044494628906 3.2761375000000004 L 4.307169494628907 3.1223875000000003 L 4.245294494628907 3.2761375000000004 Z M 4.721506347656251 3.4636375000000004 Q 4.682756347656251 3.4636375000000004 4.655881347656251 3.4564500000000002 Q 4.629006347656251 3.4492625 4.600256347656251 3.4348875000000003 L 4.594006347656251 3.3323875000000003 L 4.604006347656251 3.3323875000000003 L 4.634631347656251 3.3986375000000004 Q 4.657131347656251 3.4173875000000002 4.678381347656251 3.425825 Q 4.6996313476562515 3.4342625000000004 4.721506347656251 3.4342625000000004 Q 4.758381347656251 3.4342625000000004 4.779318847656251 3.4148875000000003 Q 4.800256347656251 3.3955125 4.800256347656251 3.3623875 Q 4.800256347656251 3.3348875000000002 4.788068847656251 3.3192625000000002 Q 4.775881347656251 3.3036375000000002 4.753068847656251 3.29145 Q 4.730256347656251 3.2792625 4.699006347656251 3.2636375 Q 4.669631347656251 3.2486375 4.649006347656251 3.2342625000000003 Q 4.628381347656251 3.2198875000000005 4.617756347656251 3.200825 Q 4.607131347656251 3.1817625000000005 4.607131347656251 3.1530125000000004 Q 4.607131347656251 3.1317625000000002 4.617443847656251 3.1114500000000005 Q 4.627756347656251 3.0911375000000003 4.645568847656251 3.0745750000000003 Q 4.663381347656251 3.0580125000000002 4.685568847656251 3.048325 Q 4.707756347656251 3.0386375 4.731506347656251 3.0386375 Q 4.760256347656251 3.0386375 4.784631347656251 3.0455125 Q 4.8090063476562515 3.0523875 4.834631347656251 3.0648875 L 4.840881347656251 3.1648875000000003 L 4.830881347656251 3.1648875000000003 L 4.8021313476562515 3.0992625 Q 4.780256347656251 3.0830125 4.764006347656251 3.075825 Q 4.747756347656251 3.0686375000000004 4.726506347656251 3.0686375000000004 Q 4.699006347656251 3.0686375000000004 4.681193847656251 3.0873875 Q 4.663381347656251 3.1061375000000004 4.663381347656251 3.1336375000000003 Q 4.663381347656251 3.1655125 4.682756347656251 3.1833250000000004 Q 4.702131347656251 3.2011375 4.743381347656251 3.2211375 Q 4.781506347656251 3.2398875000000005 4.805881347656251 3.255825 Q 4.830256347656251 3.2717625000000004 4.842131347656251 3.2923875000000002 Q 4.854006347656251 3.3130125 4.854006347656251 3.3448875000000005 Q 4.854006347656251 3.3742625000000004 4.841506347656251 3.39645 Q 4.829006347656251 3.4186375000000004 4.809318847656251 3.4336375 Q 4.789631347656251 3.4486375000000002 4.766193847656251 3.4561375 Q 4.742756347656251 3.4636375000000004 4.721506347656251 3.4636375000000004 Z M 5.0595968627929695 3.4636375000000004 Q 5.020846862792969 3.4636375000000004 4.99397186279297 3.4564500000000002 Q 4.967096862792969 3.4492625 4.93834686279297 3.4348875000000003 L 4.932096862792969 3.3323875000000003 L 4.94209686279297 3.3323875000000003 L 4.9727218627929695 3.3986375000000004 Q 4.995221862792969 3.4173875000000002 5.01647186279297 3.425825 Q 5.03772186279297 3.4342625000000004 5.0595968627929695 3.4342625000000004 Q 5.09647186279297 3.4342625000000004 5.117409362792969 3.4148875000000003 Q 5.13834686279297 3.3955125 5.13834686279297 3.3623875 Q 5.13834686279297 3.3348875000000002 5.126159362792969 3.3192625000000002 Q 5.11397186279297 3.3036375000000002 5.091159362792969 3.29145 Q 5.0683468627929695 3.2792625 5.0370968627929695 3.2636375 Q 5.00772186279297 3.2486375 4.98709686279297 3.2342625000000003 Q 4.96647186279297 3.2198875000000005 4.95584686279297 3.200825 Q 4.94522186279297 3.1817625000000005 4.94522186279297 3.1530125000000004 Q 4.94522186279297 3.1317625000000002 4.955534362792969 3.1114500000000005 Q 4.9658468627929695 3.0911375000000003 4.983659362792969 3.0745750000000003 Q 5.001471862792969 3.0580125000000002 5.023659362792969 3.048325 Q 5.04584686279297 3.0386375 5.069596862792969 3.0386375 Q 5.09834686279297 3.0386375 5.12272186279297 3.0455125 Q 5.14709686279297 3.0523875 5.17272186279297 3.0648875 L 5.178971862792969 3.1648875000000003 L 5.1689718627929695 3.1648875000000003 L 5.14022186279297 3.0992625 Q 5.118346862792969 3.0830125 5.102096862792969 3.075825 Q 5.08584686279297 3.0686375000000004 5.064596862792969 3.0686375000000004 Q 5.0370968627929695 3.0686375000000004 5.01928436279297 3.0873875 Q 5.001471862792969 3.1061375000000004 5.001471862792969 3.1336375000000003 Q 5.001471862792969 3.1655125 5.020846862792969 3.1833250000000004 Q 5.040221862792969 3.2011375 5.081471862792969 3.2211375 Q 5.119596862792969 3.2398875000000005 5.143971862792969 3.255825 Q 5.168346862792969 3.2717625000000004 5.180221862792969 3.2923875000000002 Q 5.19209686279297 3.3130125 5.19209686279297 3.3448875000000005 Q 5.19209686279297 3.3742625000000004 5.17959686279297 3.39645 Q 5.167096862792969 3.4186375000000004 5.14740936279297 3.4336375 Q 5.12772186279297 3.4486375000000002 5.10428436279297 3.4561375 Q 5.08084686279297 3.4636375000000004 5.0595968627929695 3.4636375000000004 Z M 5.276437377929688 3.4573875000000003 L 5.276437377929688 3.4473875000000005 L 5.326437377929688 3.4223875 L 5.326437377929688 3.0798875000000003 L 5.276437377929688 3.0548875000000004 L 5.276437377929688 3.0448875 L 5.432687377929688 3.0448875 L 5.432687377929688 3.0548875000000004 L 5.382687377929688 3.0798875000000003 L 5.382687377929688 3.4223875 L 5.432687377929688 3.4473875000000005 L 5.432687377929688 3.4573875000000003 L 5.276437377929688 3.4573875000000003 Z M 5.734533386230469 3.4636375000000004 Q 5.689533386230469 3.4636375000000004 5.651720886230469 3.4477 Q 5.613908386230468 3.4317625000000005 5.585783386230469 3.403325 Q 5.557658386230469 3.3748875000000003 5.542033386230469 3.3361375000000004 Q 5.526408386230469 3.2973875 5.526408386230469 3.2511375000000005 Q 5.526408386230469 3.2048875000000003 5.542033386230469 3.1661375000000005 Q 5.557658386230469 3.1273875 5.585783386230469 3.0989500000000003 Q 5.613908386230468 3.0705125000000004 5.651720886230469 3.0545750000000003 Q 5.689533386230469 3.0386375 5.734533386230469 3.0386375 Q 5.779533386230469 3.0386375 5.817658386230469 3.0545750000000003 Q 5.855783386230469 3.0705125000000004 5.883908386230469 3.0989500000000003 Q 5.912033386230469 3.1273875 5.927658386230469 3.1661375000000005 Q 5.943283386230469 3.2048875000000003 5.943283386230469 3.2511375000000005 Q 5.943283386230469 3.2973875 5.927658386230469 3.3361375000000004 Q 5.912033386230469 3.3748875000000003 5.883908386230469 3.403325 Q 5.855783386230469 3.4317625000000005 5.817658386230469 3.4477 Q 5.779533386230469 3.4636375000000004 5.734533386230469 3.4636375000000004 Z M 5.747658386230468 3.4323875000000004 Q 5.7876583862304685 3.4323875000000004 5.817970886230468 3.4123875000000004 Q 5.848283386230468 3.3923875000000003 5.865470886230469 3.3561375000000004 Q 5.882658386230469 3.3198875 5.882658386230469 3.2705125 Q 5.882658386230469 3.2098875000000002 5.861408386230469 3.164575 Q 5.840158386230469 3.1192625000000005 5.8042208862304685 3.0942625 Q 5.768283386230468 3.0692625000000002 5.723908386230469 3.0692625000000002 Q 5.683908386230469 3.0692625000000002 5.652970886230468 3.08895 Q 5.622033386230469 3.1086375000000004 5.604533386230469 3.1448875000000003 Q 5.587033386230469 3.1811375 5.587033386230469 3.2305125 Q 5.587033386230469 3.2911375000000005 5.608595886230469 3.3367625000000003 Q 5.630158386230469 3.3823875 5.666408386230469 3.4073875000000005 Q 5.7026583862304685 3.4323875000000004 5.747658386230468 3.4323875000000004 Z M 6.030749511718749 3.4573875000000003 L 6.030749511718749 3.4473875000000005 L 6.08074951171875 3.4223875 L 6.08074951171875 3.0811375 L 6.03137451171875 3.0548875000000004 L 6.03137451171875 3.0448875 L 6.1232495117187495 3.0448875 L 6.36199951171875 3.3448875000000005 L 6.36199951171875 3.0786375 L 6.29949951171875 3.0548875000000004 L 6.29949951171875 3.0448875 L 6.45512451171875 3.0448875 L 6.45512451171875 3.0548875000000004 L 6.405749511718749 3.0792625000000005 L 6.405749511718749 3.4605125 L 6.38262451171875 3.4605125 L 6.124499511718749 3.1348875000000005 L 6.124499511718749 3.4230125000000005 L 6.186999511718749 3.4473875000000005 L 6.186999511718749 3.4573875000000003 L 6.030749511718749 3.4573875000000003 Z" fill="#ff6300" fill-rule="nonzero"></path></g><g clip-path="url(&quot;#SvgjsClipPath1002&quot;)"><g clip-path="url(&quot;#SvgjsClipPath1000&quot;)"><path d=" M -0.9898344155981924 0.049241172512854425 L -3.9488724798658814 0.049241172512854425 L -3.9488724798658814 3.0082792367805435 L -0.9898344155981924 3.0082792367805435 Z M -4.068839804757472 -0.07072615237873592 L -4.068839804757472 3.1282465616721336 L -0.8698670907066024 3.1282465616721336 L -0.8698670907066024 -0.07072615237873592 Z" fill="#ffffff" transform="matrix(1,0,0,1,0,0)" fill-rule="evenodd"></path></g><g clip-path="url(&quot;#SvgjsClipPath1000&quot;)"><path d=" M -0.5899673248915898 0.44910826321945707 L -3.5490053891592788 0.44910826321945707 L -3.5490053891592788 3.408146327487146 L -0.5899673248915898 3.408146327487146 Z M -3.668972714050869 0.32914093832786684 L -3.668972714050869 3.528113652378736 L -0.46999999999999975 3.528113652378736 L -0.46999999999999975 0.32914093832786684 Z" fill="#ffffff" transform="matrix(1,0,0,1,0,0)" fill-rule="evenodd"></path></g><path d=" M -2.5717545877137944 1.3577362024016844 C -2.678040499471443 1.4143558002538898 -2.774393148448003 1.4898485973901638 -2.8608125346434745 1.5842145938105059 C -2.849885945584277 1.6189810135443163 -2.8339927251345354 1.6559824174038718 -2.813132873294249 1.695218805389172 C -2.792273021453963 1.734455193374472 -2.7704198433355676 1.7764232286245716 -2.747573338939064 1.8211229111394707 C -2.686980435974423 1.9343621068438814 -2.6437707428766872 2.031211418959496 -2.617944259645857 2.111670847486314 L -2.743103370687574 2.311329429386196 C -2.928855384693932 2.2626564417588617 -3.093747546860004 2.1946135917084044 -3.2377798571857896 2.1072008792348242 C -3.2824795397006885 2.079387743447776 -3.326682559076533 2.0505812813826187 -3.370388915313323 2.020781493039353 L -3.270559624363382 1.8390027841454302 C -3.1195740300908343 1.9433020433468613 -2.9815016774337018 2.019788166761244 -2.8563425663919846 2.0684611543885785 C -2.8801823970665974 2.0098549039801554 -2.915942143078517 1.9390804066648986 -2.963621804427742 1.8561376624428083 C -3.0113014657769677 1.7731949182207178 -3.045819553941251 1.7106153626998593 -3.067176068920592 1.6683989958802323 C -3.0885325838999322 1.6261826290606056 -3.1051707990582558 1.5842145938105059 -3.117090714395562 1.5424948901299338 C -3.0555044851528126 1.466008766715551 -2.977031709182212 1.390515969579277 -2.8816723864837606 1.316016498721112 C -2.7942596740101804 1.2474769855316001 -2.7108202666490357 1.194334029652776 -2.631354164400326 1.156587631084639 L -2.3437862068878097 1.3487962658987047 C -2.362659406171878 1.4332289995379583 -2.405869099269614 1.5380249218784439 -2.473415286181017 1.663184032920161 C -2.4903018329088673 1.6949704738196445 -2.5052017270805003 1.7203002939114207 -2.5181149686959157 1.7391734931954892 L -2.6969136987555116 1.6363642234112215 C -2.657180647631157 1.572791341612254 -2.6154609439505845 1.4799153346090752 -2.5717545877137944 1.3577362024016844 Z" fill="#ff6300" transform="matrix(1,0,0,1,0,0)" fill-rule="nonzero"></path><path d=" M -2.3552598529338624 2.095280963897518 C -2.292680297413004 1.9542286324060587 -2.2375506889779615 1.8429760892578657 -2.189871027628736 1.7615233344529386 C -2.1104049253800268 1.6274242869082416 -2.0244822023236098 1.5042518284227424 -1.9321028584594853 1.3920059589964404 C -2.008588981873868 1.3810793699372428 -2.0706718742556722 1.375616075407644 -2.1183515356048974 1.375616075407644 L -2.0542819906668757 1.1983073347652113 C -1.9350828372938118 1.2032739661557559 -1.8203536521722377 1.2149455499235349 -1.7100944353021534 1.233322086068549 C -1.5998352184320694 1.251698622213563 -1.4920593172572572 1.283733394682574 -1.3867667317777175 1.3294264034755818 L -1.2988573561650827 1.529084985375464 C -1.3465370175143083 1.730730219831564 -1.4523262661329026 1.8976090345538534 -1.6162251020208656 2.0297214295423327 C -1.7672106962934133 2.1509072354716143 -1.9499827314654448 2.2313666639984326 -2.16454120753696 2.271099715122787 L -2.3552598529338624 2.095280963897518 Z M -2.0930217155131214 2.0490912919654556 C -1.9579293416903156 2.01035156711921 -1.8382335251781972 1.9437987064859157 -1.7339342659767663 1.8494327100655734 C -1.6236750491066823 1.7501000822546868 -1.5511622308047348 1.634377570855004 -1.5163958110709244 1.5022651758665244 C -1.6226817228285733 1.4575654933516256 -1.7468475075921814 1.4232957367568697 -1.8888931653617496 1.399455906082257 L -1.757774096651379 1.5067351441180143 C -1.8968397755866204 1.682553895343284 -2.008588981873868 1.8633392779590974 -2.0930217155131214 2.0490912919654556 Z" fill="#ff6300" transform="matrix(1,0,0,1,0,0)" fill-rule="nonzero"></path></g></g><defs><clipPath id="SvgjsClipPath1002"><path d=" M -4.068839804757472 -0.07072615237873592 h 3.598839804757472 v 3.598839804757472 h -3.598839804757472 Z"></path></clipPath><clipPath id="SvgjsClipPath1000"><path d=" M -4.068839804757472 -0.07072615237873592 L -0.46999999999999975 -0.07072615237873592 L -0.46999999999999975 3.528113652378736 L -4.068839804757472 3.528113652378736 Z"></path></clipPath></defs></svg>