<svg xmlns="http://www.w3.org/2000/svg" version="1.1" xmlns:xlink="http://www.w3.org/1999/xlink" xmlns:svgjs="http://svgjs.dev/svgjs" viewBox="0 0 6.505669302395963 5.630442248770415"><g transform="matrix(1,0,0,1,3.255116373992612,4.843017556947912)"><g><path d=" M -1.8683721493474565 -0.9307341162466397 L -1.9205068001333265 -1.099881916076952 C -1.9346450105159354 -1.1457525058614435 -1.9876698036231597 -1.178591070323613 -2.0268509323974127 -1.166514682288468 L -2.223712213555855 -1.1058381960631052 C -2.2648046169044624 -1.0931727159286848 -2.278615533754522 -1.0700803237667469 -2.2899195344343704 -1.0320642801978799 L -2.3506286321702214 -0.8386000575310031 C -2.3573835428221415 -0.8197753083405205 -2.3641450029706434 -0.8145520280818883 -2.37752392499112 -0.8104283833869607 L -2.4950673113138797 -0.7741992192815257 L -2.522460093930184 -0.8630734869889778 L -2.4584323956893313 -0.8828080723147027 C -2.433585826222732 -0.8904662696052824 -2.427341459035241 -0.9007622823494368 -2.424258549758919 -0.9111302942318551 C -2.4187538224438137 -0.9306161346598769 -2.3983450922115264 -0.9934132980536619 -2.4054141974028305 -1.0163485929459075 C -2.4083596578992075 -1.0259049658176767 -2.423361857940982 -1.0338380606681472 -2.4405633291101667 -1.028536231774669 L -2.588687108622587 -0.9828815940808281 C -2.6278682373968403 -0.9708052060456831 -2.6555620702352236 -0.9214589638106387 -2.6378893072569625 -0.8641207265800244 L -2.5887001169674697 -0.7045292996214811 C -2.5730891763366723 -0.6538805234011051 -2.5349160354981133 -0.6216965006798926 -2.487134171139268 -0.6364238031617768 L -2.2969623509910635 -0.6950384670396758 C -2.25491431035528 -0.7079984932237338 -2.242209578565507 -0.7380748924455478 -2.2316386682614615 -0.7716792947664317 L -2.1712961157135124 -0.9629376968093171 C -2.16652447877421 -0.978011895989356 -2.1593964734378064 -0.9854409968719797 -2.1469731887045063 -0.9892700955172695 L -2.0141396057869168 -1.0302119964169076 L -1.9838013626742352 -0.9317813558376862 L -2.073631267668864 -0.904094027171744 C -2.098477837135464 -0.8964358298811642 -2.1047222043229543 -0.8861398171370098 -2.1078051135992766 -0.8757718052545916 C -2.1145600242511966 -0.8569470560641089 -2.1337185711466695 -0.7934888014327848 -2.127827650153916 -0.7743760556892467 C -2.1237040054589884 -0.7609971336687701 -2.1096574427043904 -0.7527694927686617 -2.092455971535206 -0.75807132166214 L -1.9175743479818321 -0.8119732487458361 C -1.8783932192075792 -0.8240496367809811 -1.8509939324188334 -0.8743515163032023 -1.8683721493474565 -0.9307341162466397 Z M -2.2442969359546834 -1.4458659554686837 L -2.5272880976104606 -1.5027254526939813 L -2.3089590841831793 -1.5578293717548797 Z M -2.1081275559876644 -1.7514390235872561 C -2.1477500922317327 -1.739148595539889 -2.634506396277349 -1.600302275920493 -2.6654901155724082 -1.5992977169899247 C -2.6844801370758313 -1.5986820195808669 -2.7063116415077997 -1.6239878571334345 -2.718305339299435 -1.6235989956119243 C -2.7292995622751013 -1.6232425392172065 -2.7360366449725486 -1.6150199048019018 -2.7355829731974532 -1.6010272573783269 L -2.728875111951401 -1.3941359704726097 C -2.7284214401763056 -1.3801433230490345 -2.721165875450178 -1.3723743604088252 -2.7101716524745116 -1.3727308168035428 C -2.698177954682876 -1.3731196783250532 -2.6780315168441193 -1.399786531202907 -2.659041495340696 -1.400402228611965 C -2.6280577760456367 -1.4014067875425331 -2.089931127074062 -1.2827825502778691 -2.0586881667646626 -1.2757913106806802 C -2.023414902064592 -1.2679302167746918 -2.002161605800291 -1.229598801487726 -1.9861700087447764 -1.2301172835164063 C -1.9751757857691103 -1.230473739911124 -1.968438703071663 -1.238696374326429 -1.9688923748467584 -1.252689021750004 L -1.9746604874158276 -1.4305955389926013 C -1.9751789694445079 -1.4465871360481155 -1.9834016038598128 -1.4533242187455628 -1.9933963520195093 -1.4530001674776376 C -2.0093879490750237 -1.4524816854489573 -2.021214537118098 -1.416079325425747 -2.0601940549409146 -1.4148155254808388 L -2.087179874972095 -1.4139405870574406 L -2.1909937348865673 -1.5916698263222795 C -2.1909937348865673 -1.5916698263222795 -2.0571340039148183 -1.6290271873662685 -2.0501376802030307 -1.6292540232538162 C -2.026150284619759 -1.6300317462968368 -2.014313528347487 -1.6044018574763437 -1.9983219312919729 -1.604920339505024 C -1.9883271831322764 -1.6052443907729492 -1.980558220492067 -1.612499955499077 -1.9810767025207474 -1.6284915525545913 L -1.9863911433147214 -1.7924054223736134 C -1.9868448150898166 -1.8063980697971886 -1.9941003798159445 -1.814167032437398 -2.0050946027916106 -1.8138105760426804 C -2.021086199847125 -1.8132920940139998 -2.0476780742421963 -1.7694073333771145 -2.1081275559876644 -1.7514390235872561 Z M -1.9287211908674744 -2.038041735461004 C -1.924351516012094 -2.053433484603264 -1.9306941030844715 -2.0677083432445715 -1.9451238679053402 -2.07180491342149 C -1.9672495072973386 -2.0780863210260994 -2.002080632184563 -2.043275507489346 -2.022282302933779 -2.049010705737033 L -2.338775144671498 -2.138862144950788 L -1.9045861769941732 -2.2255797345580817 C -1.8848125171029795 -2.2293217092383 -1.8732809411398381 -2.2333245527034262 -1.865907114821384 -2.2592981293809897 L -1.8487015200783246 -2.319903141628638 C -1.8426932171521768 -2.3410667966992458 -1.8523375321531965 -2.358358042697181 -1.8725392029024126 -2.364093240944867 L -2.468007497843592 -2.5331450369123885 C -2.506486870699242 -2.544069224050839 -2.516869008917406 -2.5917159574752717 -2.5370706796666225 -2.597451155722958 C -2.5457285385591435 -2.5999090978291095 -2.5556092505579633 -2.59439806068567 -2.5594327160564214 -2.580930280186192 L -2.606133616073297 -2.4164309612282895 C -2.6099570815717548 -2.402963180728812 -2.6044460444283146 -2.3930824687299923 -2.5957881855357936 -2.390624526623841 C -2.5755865147865777 -2.384889328376154 -2.541717374220745 -2.419973246591369 -2.5032380013650952 -2.409049059452918 L -2.162695551592595 -2.312370003277631 L -2.6254709442331956 -2.234807538345567 C -2.6405773528034406 -2.232859097915677 -2.6588428190163205 -2.23076798719978 -2.6673090640486197 -2.2009464732366513 L -2.7000816254639712 -2.085508354669702 C -2.703905090962429 -2.0720405741702246 -2.6983940538189892 -2.0621598621714043 -2.6897361949264678 -2.0597019200652533 C -2.669534524177252 -2.0539667218175666 -2.635665383611419 -2.089050640032781 -2.5971860107557694 -2.0781264528943306 L -2.065208681026412 -1.9270995657052525 C -2.026729308170762 -1.9161753785668019 -2.016347169952598 -1.8685286451423695 -1.9961454992033816 -1.862793446894683 C -1.9874876403108603 -1.8603355047885315 -1.9776069283120403 -1.8658465419319714 -1.9737834628135826 -1.8793143224314488 Z M -1.7986703101784478 -2.6489266106647333 L -2.2549762479995716 -2.928229118904786 L -2.2053804755083473 -3.009255406929098 C -2.2012039894038233 -3.01607867328904 -2.1929541750554735 -3.0180637584806034 -2.1861309086955316 -3.0138872723760795 L -1.7537064031342047 -2.749202465501861 C -1.7434715035942916 -2.7429377363450747 -1.7433318692935027 -2.7393348899339656 -1.7490745376872234 -2.7299528986890453 Z M -1.6275854047955478 -2.717730354386454 C -1.5993941235900098 -2.763787402316063 -1.601018156269128 -2.8128522830135347 -1.6445164793137583 -2.839477381929876 L -2.140909106999542 -3.1433167460340083 C -2.1929365129940996 -3.175162452581005 -2.2402075217311466 -3.1630607282004863 -2.278840018197995 -3.099945514371022 L -2.42971557872393 -2.853455017118116 C -2.437024429406847 -2.8415143009882176 -2.4343776491514295 -2.8305145485237517 -2.4267014744964945 -2.825816001656162 C -2.4087904003016467 -2.814852725631786 -2.366724896704996 -2.8395203847659674 -2.3326085649052857 -2.818637954243347 L -1.8609502777742926 -2.5299383522681147 C -1.8268339459745824 -2.5090559217454937 -1.8296656680015662 -2.4603734675102986 -1.8117545938067183 -2.4494101914859225 C -1.8040784191517836 -2.444711644618333 -1.7930786666873173 -2.4473584248737508 -1.7857698160044002 -2.4592991410036493 Z M -1.2823123433323738 -3.1019399254491864 C -1.2652927898552868 -3.118861355632258 -1.2652519051494473 -3.1330034321573246 -1.2821733353325193 -3.1500229856344113 L -1.43094090902536 -3.2996532266204674 C -1.4386965645259346 -3.3074538552974655 -1.4507193738075328 -3.306781503471176 -1.4563925582998953 -3.301141026743485 C -1.4649023350384387 -3.2926803116519494 -1.4828477255180208 -3.2001008162950653 -1.4857333794112093 -3.1803100861011404 C -1.4871762063578036 -3.170414721004178 -1.485778352587633 -3.1647538019235677 -1.4752024587232129 -3.1541165810003884 L -1.430783704492649 -3.109440253123035 L -1.4889338455393628 -3.051625366664206 C -1.4938978819701798 -3.046689949527477 -1.501678068294258 -3.046005332289435 -1.5066134854309874 -3.050969368720252 L -1.5855801596186565 -3.1303939516133243 L -1.5554974826811254 -3.2632436130666838 C -1.551205798076598 -3.280201839485011 -1.5540096825581076 -3.2886952623412187 -1.5659956956044503 -3.3007507793874886 L -1.6308611779728928 -3.365992401049655 C -1.6386168334734674 -3.3737930297266536 -1.6506314658138976 -3.375949093205377 -1.6591412425524412 -3.367488378113841 C -1.6648144270448035 -3.3618479013861506 -1.6683765212348658 -3.352665772821317 -1.6705284962430054 -3.3420653481333935 L -1.6941593366267016 -3.2396027530912987 L -1.8668989364122277 -3.413344028169895 C -1.8711292939579955 -3.4175989165391663 -1.871104763134492 -3.426084162454206 -1.8661407267036747 -3.4310195795909353 L -1.8079905856569611 -3.4888344660497648 L -1.7304340306512147 -3.4108281792797825 C -1.72267837515064 -3.4030275506027845 -1.7106555658690419 -3.403699902429074 -1.7049823813766796 -3.409340379156765 C -1.696472604638136 -3.417801094248301 -1.678527214158554 -3.510380589605185 -1.6756415602653654 -3.53017131979911 C -1.6741987333187711 -3.5400666848960722 -1.675596587088942 -3.5457276039766827 -1.6861724809533618 -3.556364824899862 L -1.7665492743229536 -3.637207703916025 C -1.7834707045060254 -3.654227257393112 -1.7976127810310918 -3.6542681420989513 -1.8146323345081787 -3.6373467119158795 L -2.0628341560490298 -3.3905758550794136 C -2.0727622289106638 -3.380705020805955 -2.0727949366753355 -3.369391359585902 -2.0664494003566833 -3.3630090270319943 C -2.0516431489464955 -3.3481169177395436 -2.0049334117079374 -3.362124074735339 -1.976731028069484 -3.3337581522735276 L -1.5868330742678682 -2.9415992742389827 C -1.558630690629415 -2.9132333517771714 -1.5729076866837517 -2.8666053839502923 -1.5581014352735638 -2.851713274657841 C -1.5517558989549118 -2.8453309421039337 -1.540442237734859 -2.845298234339262 -1.5305141648732248 -2.8551690686127205 Z M -1.2839859186909477 -3.875213759581805 C -1.2753595813796488 -3.88027205026065 -1.269885730183591 -3.8788448316076685 -1.2653332685726304 -3.871081128027499 L -1.1793423270322645 -3.724433393735416 C -1.175801523557073 -3.718394957617507 -1.1734801584762566 -3.710482229632699 -1.1848706645428468 -3.6864144841722912 L -1.2358750273085606 -3.577678312734892 L -1.3780129953841067 -3.8200783911823937 Z M -0.8764436275389516 -3.470808911783733 C -0.8890578415393595 -3.47848234681323 -0.978906339442573 -3.5486767014618503 -1.0739621524292706 -3.6297284899519138 C -1.0489500437659458 -3.678013005277368 -1.0232830816300975 -3.723203790341548 -1.0450337315491312 -3.760297040780134 L -1.1639035625019902 -3.96301596759566 C -1.1972882809823675 -4.019949793850234 -1.2486937697263585 -4.024583984932981 -1.3064902297120617 -3.9906934373847194 L -1.567362421176537 -3.8365645960845844 C -1.5794392934123553 -3.8294829891342013 -1.5822937307183187 -3.818535286742086 -1.577741269107358 -3.810771583161917 C -1.5671188586817832 -3.7926562748081887 -1.5183915396818541 -3.794566348911235 -1.4981583769664737 -3.760060999666039 L -1.2184349024263421 -3.2830245463512044 C -1.1982017397109619 -3.248519197106009 -1.223660921588204 -3.206927971370987 -1.2130385111626292 -3.1888126630172593 C -1.2084860495516687 -3.1810489594370903 -1.1975383471595535 -3.178194522131127 -1.1854614749237349 -3.18527612908151 L -1.0336379382448726 -3.274302045029183 C -1.021561066009054 -3.2813836519795663 -1.0187066287030908 -3.2923313543716812 -1.0232590903140513 -3.3000950579518507 C -1.033881500739626 -3.3182103663055784 -1.0826088197395554 -3.3163002922025324 -1.1028419824549356 -3.3508056414477285 L -1.1594948380580001 -3.4474206193342773 C -1.1625298124653072 -3.4525964217210565 -1.1631846659378309 -3.455690151982331 -1.1616084228802102 -3.458932906648244 L -1.1413250433897475 -3.4974891579759584 C -1.1413250433897475 -3.4974891579759584 -0.9903972790593281 -3.378485754855622 -0.9848331593125984 -3.368996783813193 C -0.9737049198191393 -3.350018841728335 -0.9920280084314734 -3.335796871973602 -0.9844405724132058 -3.3228573660066534 C -0.9798881108022452 -3.3150936624264844 -0.9680777746790001 -3.3127450541884054 -0.9560009024431816 -3.3198266611387885 L -0.806765266957709 -3.407335089882808 C -0.79727629591528 -3.4128992096295376 -0.792696591147057 -3.424858570157422 -0.7972490527580176 -3.432622273737591 C -0.8083772922514767 -3.451600215822449 -0.8237556750071758 -3.4402641960703835 -0.8764436275389516 -3.470808911783733 Z M -0.6336189262748974 -3.463119569175959 L -0.46360816976353425 -3.5123673373531465 C -0.4175035578282493 -3.5257226643164516 -0.38376713375610594 -3.578180777996077 -0.3951748088705957 -3.6175618006907997 L -0.45249142042144674 -3.815427426913064 C -0.46445556749274086 -3.85672947510509 -0.4873095165365165 -3.870931482466886 -0.525127628766873 -3.882880975649953 L -0.7175303953079702 -3.9468745333517408 C -0.7362374310272248 -3.953948910681127 -0.7413448571003977 -3.9607983047351345 -0.7452401607980284 -3.9742454832162593 L -0.7794631861414976 -4.092388551300427 L -0.6901355005168831 -4.118264497291831 L -0.6714936899639363 -4.053910143132162 C -0.6642595545254795 -4.028936811667216 -0.6540713287306457 -4.022518084756568 -0.6437572981223665 -4.019259132070276 C -0.6243679856328623 -4.013423503467944 -0.5619273300263836 -3.9919487618528953 -0.5388750240587412 -3.998626425334548 C -0.5292698965722235 -4.00140878511857 -0.5210825753292285 -4.016273769843218 -0.5260908229404679 -4.033562999318949 L -0.5692173995928074 -4.182442475359974 C -0.5806250747072971 -4.221823498054696 -0.6294927470192058 -4.250353317591733 -0.6871235119383119 -4.233659158887602 L -0.8475291409631573 -4.187193750494436 C -0.8984363166417012 -4.17244724363912 -0.9312654806682163 -4.13482748833263 -0.9173536817481069 -4.086801850900041 L -0.8619847220460712 -3.8956598139183396 C -0.8497423389963749 -3.853397252977662 -0.8198865647336346 -3.8401823847160292 -0.7864669754546896 -3.8290409731166575 L -0.5962634703892982 -3.765451456206717 C -0.5812726808512054 -3.76042390918808 -0.5739659933023269 -3.753170474342225 -0.5703489255830984 -3.740683808609752 L -0.5316741245851941 -3.607172536547156 L -0.6306069376963264 -3.5785142307717304 L -0.656761119666132 -3.6688024291449968 C -0.663995255104589 -3.6937757606099426 -0.6741834808994229 -3.7001944875205908 -0.6844975115077019 -3.703453440206882 C -0.7032045472269566 -3.710527817536268 -0.7663274796036849 -3.7307638104242633 -0.7855377345767202 -3.7251990908562194 C -0.7989849130578449 -3.721303787158589 -0.8074504702792421 -3.707399315182593 -0.8024422226680027 -3.690110085706861 L -0.7515250386204021 -3.5143362527035875 C -0.7401173635059123 -3.474955230008865 -0.6902891784453518 -3.44670364645023 -0.6336189262748974 -3.463119569175959 Z M 0.1342987410355528 -3.6712568921463107 L 0.1771189769120629 -4.20454051968374 L 0.27181420049347566 -4.196936926397257 C 0.2797885351108578 -4.196296623804711 0.28528905912948493 -4.189835645897265 0.284648756536939 -4.181861311279883 L 0.24406957973433968 -3.6764878549032907 C 0.2431091258455208 -3.6645263529772176 0.23995867471586596 -3.662772882795077 0.22899396461696553 -3.6636532988598276 Z M 0.2730197708096154 -3.549764193195206 C 0.32684652947694476 -3.5454421506955214 0.36987601564087075 -3.569073979242388 0.37395794466835114 -3.619910362428199 L 0.42053995827606866 -4.200043205842748 C 0.42542226554423146 -4.260847507300287 0.3932558376115049 -4.29753975326655 0.31949324240072025 -4.3034625522476 L 0.03142040434779096 -4.326593483403322 C 0.017465318767372243 -4.327714012940278 0.008850681557444173 -4.320379980915441 0.008130341140829972 -4.311408854470886 C 0.006449546835396877 -4.2904762261002585 0.04747072545025621 -4.26410838764035 0.04426921248752648 -4.22423671455344 L 0.000008295777788019931 -3.6730108341269 C -0.003193217184941713 -3.6331391610399897 -0.04789613570694022 -3.6136545754499503 -0.04957693001237333 -3.5927219470793226 C -0.05029727042898752 -3.5837508206347675 -0.04296323840415134 -3.5751361834248394 -0.029008152823732612 -3.574015653887884 Z M 0.77182323739057 -3.415504805459436 C 0.7946113163122747 -3.4079746355371725 0.8072439199972614 -3.414332097620273 0.8147740899195248 -3.4371201765419777 L 0.8809768338194246 -3.6374653703952973 C 0.8844281617004619 -3.647909906567745 0.8783926887455773 -3.658329746595829 0.8707966624383423 -3.6608398032365836 C 0.85940262297749 -3.664604888197715 0.7687122412369516 -3.6387542661596406 0.7497551036613501 -3.632380339980297 C 0.7402765348735493 -3.6291933768906257 0.7358592396078647 -3.625387131688887 0.73115288340645 -3.6111445823628214 L 0.7113861873605083 -3.5513258751933465 L 0.633526917711351 -3.5770539557610803 C 0.6268803946925203 -3.5792502553217402 0.6227521603625659 -3.585880314244328 0.624948459923226 -3.5925268372631587 L 0.660089252893789 -3.698871205564447 L 0.7921863979071749 -3.732102881407119 C 0.8092527609540892 -3.7359420548013436 0.815560830748461 -3.7422830527882014 0.8208947011100642 -3.7584246086910755 L 0.8497603524787409 -3.8457789112242766 C 0.8532116803597785 -3.8562234473967245 0.849702728141891 -3.867914779841428 0.8383086886810387 -3.87167986480256 C 0.8307126623738039 -3.8741899214433144 0.8209121044577874 -3.8732157220105456 0.8104840323815823 -3.8703425160009686 L 0.7084078432283129 -3.845094711978718 L 0.7852783278514192 -4.077723017637786 C 0.787160870331985 -4.083420037368212 0.794740432542977 -4.087234514618073 0.8013869555618076 -4.085038215057413 L 0.879246225210965 -4.059310134489679 L 0.8447329464005908 -3.954864772765199 C 0.8412816185195533 -3.9444202365927516 0.8473170914744381 -3.9340003965646675 0.8549131177816729 -3.931490339923913 C 0.8663071572425252 -3.9277252549627812 0.9569975389830638 -3.953575877000856 0.9759546765586653 -3.9599498031801996 C 0.985433245346466 -3.963136766269871 0.9898505406121507 -3.96694301147161 0.9945568968135654 -3.9811855607976754 L 1.030325203944317 -4.089428935675772 C 1.0378553738665803 -4.112217014597477 1.03149791178348 -4.124849618282464 1.0087098328617752 -4.1323797882047275 L 0.6763836819202494 -4.242194766237736 C 0.6630906358825884 -4.246587365359057 0.652984552934599 -4.241501395692576 0.6501607392137503 -4.232955866096937 C 0.6435718405317697 -4.213016297040445 0.677184069090988 -4.17768616696309 0.6646337858872156 -4.139706035426915 L 0.4911261205950613 -3.614630716939305 C 0.47857583739128884 -3.5766505854031303 0.4305307831477322 -3.5683035642138856 0.42394188446575165 -3.548363995157394 C 0.4211180707449029 -3.539818465561755 0.42620404041138327 -3.5297123826137655 0.4394970864490443 -3.525319783492445 Z M 1.431709741011586 -3.7874586425150607 C 1.4849126521374691 -3.755623909160886 1.481831871490291 -3.7504752403422525 1.4876979051794172 -3.721327519183334 C 1.4920165313416192 -3.69543641128755 1.4947737155702268 -3.6844638119998008 1.5059291646772668 -3.677788787264248 C 1.5196589481936238 -3.669573372205106 1.5347462722142793 -3.6733645005194417 1.5429616872734209 -3.6870942840357985 L 1.605604227099377 -3.79178388334802 C 1.6138196421585187 -3.8055136668643774 1.609515050402987 -3.8197428794152604 1.59578526688663 -3.827958294474402 C 1.5906365980679962 -3.83103907512158 1.5815420199290766 -3.8353155980637714 1.5659271980605547 -3.842328253624565 C 1.5472245783415195 -3.850023188039175 1.5233732898038503 -3.8607989031009637 1.5096435062874933 -3.8690143181601053 L 1.3517509958493887 -3.9634915913402358 C 1.2908250814955546 -3.9999474956651775 1.284290803359282 -4.0143455236286805 1.270561019842925 -4.022560938687823 C 1.2568312363265681 -4.0307763537469645 1.2480883234195597 -4.027850354105737 1.239872908360418 -4.014120570589379 L 1.1726091975636947 -3.901707968049207 C 1.1664476362693383 -3.8914106304119396 1.1678332455869773 -3.880093383095614 1.1772724717544727 -3.8744452852424542 C 1.189286032331285 -3.8672567970657052 1.2021436699711994 -3.871216740792661 1.230777927688921 -3.8762246630120147 C 1.2594121854066427 -3.881232585231369 1.2686685617548474 -3.885016696342369 1.3167228040620966 -3.856262743635373 L 1.0373986920512763 -3.3894501040792373 C 1.016860154403422 -3.3551256452883447 0.9681517020556965 -3.357468009455025 0.9573689697905728 -3.339447668589807 C 0.9527477988198056 -3.3317246653618557 0.9555049830484132 -3.320752066074107 0.9675185436252255 -3.3135635778973573 L 1.1185461623051518 -3.223194012246798 C 1.1305597228819642 -3.216005524070049 1.1415323221697136 -3.2187627082986565 1.1461534931404809 -3.2264857115266072 C 1.1569362254056044 -3.244506052391826 1.1318470913529113 -3.2863215441680325 1.152385629000766 -3.3206460029589246 Z M 1.5555686293676192 -3.2104889530314575 L 1.8022567855301146 -3.3603620780710997 L 1.6789793361604497 -3.1719299404806405 Z M 1.66239766590832 -2.8934644162022307 C 1.6832188235867083 -2.929345879284604 1.947226695106191 -3.3612137338139174 1.9693381503254186 -3.3829412175174687 C 1.982890332556558 -3.3962580623680325 2.016092111133852 -3.39243158888657 2.02465138412194 -3.4008422277395574 C 2.032497384361021 -3.4085519800214628 2.0318832010354138 -3.4191643680110975 2.022070789040262 -3.4291501864972003 L 1.8769872688262252 -3.5767976455417205 C 1.867174856831073 -3.5867834640278233 1.8565748550193633 -3.587583440022306 1.8487288547802825 -3.5798736877404007 C 1.8401695817921944 -3.571463048887413 1.84341390491118 -3.538199339420494 1.8298617226800404 -3.52488249456993 C 1.8077502674608128 -3.5031550108663785 1.3315420458236982 -3.225886675773428 1.303823498035812 -3.2098653740619354 C 1.2725509726808144 -3.191753798815121 1.2309509414284576 -3.2055537046047613 1.2195385774443401 -3.1943395194674444 C 1.2116925772052594 -3.186629767185539 1.2123067605308664 -3.1760173791959043 1.2221191725260188 -3.1660315607098015 L 1.3468769821786686 -3.0390690113864944 C 1.3580911673159852 -3.027656647402377 1.3687035553056202 -3.0282708307279838 1.3758362827956936 -3.0352796964388067 C 1.387248646779811 -3.0464938815761236 1.3712892759579436 -3.081283225964458 1.3991069131692302 -3.108617802236668 L 1.4183652773924285 -3.1275417396558898 L 1.6151264761610449 -3.067126256051626 C 1.6151264761610449 -3.067126256051626 1.5419639118907693 -2.948968568238273 1.536971002647718 -2.944062362240697 C 1.5198524566715417 -2.927241084534722 1.493783405584321 -2.9380764237270074 1.4823710416002036 -2.9268622385896905 C 1.4752383141101302 -2.9198533728788676 1.4744383381156474 -2.909253371067158 1.4856525232529643 -2.8978410070830405 L 1.600597920910462 -2.780864276245836 C 1.610410332905614 -2.770878457759733 1.621010334717324 -2.7700784817652506 1.6288563349564047 -2.777788234047156 C 1.6402686989405222 -2.789002419184473 1.6301022133561889 -2.839297971382093 1.66239766590832 -2.8934644162022307 Z M 2.2751116125444115 -2.9130480884802994 C 2.3091437106058446 -2.9340675152454856 2.3513080507637434 -2.9095691802194277 2.3691749022459954 -2.9206043792711505 C 2.376832124309818 -2.9253337502933174 2.3794346585690676 -2.936344055258641 2.3720778592012524 -2.9482552895801426 L 2.2795923814344325 -3.0979965210504465 C 2.2722355820666174 -3.109907755371948 2.2612252771012935 -3.112510289631197 2.253568055037471 -3.10778091860903 C 2.235701203555219 -3.0967457195573074 2.2387286309424708 -3.048075043751285 2.2046965328810377 -3.027055616986099 L 1.7342027771817305 -2.7364620419573993 C 1.7001706791202977 -2.715442615192213 1.6580063389623987 -2.739940950218271 1.6401394874801467 -2.728905751166548 C 1.6324822654163242 -2.7241763801443812 1.629879731157075 -2.7131660751790574 1.6372365305248902 -2.701254840857556 L 1.7297220082917095 -2.551513609387252 C 1.7370788076595247 -2.539602375065751 1.7480891126248486 -2.5369998408065015 1.7557463346886708 -2.5417292118286685 C 1.7736131861709232 -2.5527644108803913 1.7705857587836717 -2.6014350866864135 1.8046178568451043 -2.6224545134515997 Z M 1.9374497965891266 -2.3669510359471357 L 2.4424479259546183 -2.569220384434132 C 2.47958014134914 -2.584093130646411 2.51691936737919 -2.552727828169361 2.536413780461314 -2.5605360199308076 C 2.544768528925081 -2.5638823878285706 2.54922042276153 -2.5742833801499305 2.544014961587232 -2.587279655538013 L 2.4785748782532036 -2.7506614032739076 C 2.473369417078906 -2.76365767866199 2.4629684247575456 -2.7681095724984384 2.4546136762937785 -2.7647632046006754 C 2.4351192632116545 -2.756955012839229 2.429756441538005 -2.708486052218058 2.3926242261434836 -2.693613306005779 L 1.8792713483142243 -2.48799758962102 C 1.8421391329197028 -2.4731248434087405 1.804799906889653 -2.5044901458857907 1.785305493807529 -2.496681954124344 C 1.7769507453437619 -2.4933355862265816 1.7724988515073132 -2.482934593905221 1.777704312681611 -2.469938318517139 L 1.8951990077586163 -2.1765938169004193 C 1.9041226554859836 -2.154314487663706 1.9171238958876837 -2.1487496203681458 1.9394032251243967 -2.1576732680955133 L 2.1352756613304975 -2.2361270043652857 C 2.1454870205639907 -2.240217009573662 2.149567095745132 -2.2515463072798854 2.1465925465026765 -2.2589727503587897 C 2.142130722638993 -2.270112414977146 2.0639286821273073 -2.3228138462651935 2.0468399190240394 -2.3332049085593183 C 2.0382955374724054 -2.3384004397063807 2.0325385545821693 -2.339326262584435 2.0186139738092237 -2.3337489827548303 L 1.9601307345628523 -2.3103244074704907 Z M 2.5894651601565126 -2.066394890155226 C 2.628597627165289 -2.074680421267171 2.6600057416406764 -2.037377199622104 2.680550286820284 -2.041727103455875 C 2.689355091897259 -2.0435913479560623 2.6955244790766253 -2.053074947580207 2.6926245431874447 -2.066771311033279 L 2.656168206294888 -2.238954165871896 C 2.6532682704057073 -2.252650529324968 2.643784670781563 -2.258819916504334 2.634979865704588 -2.2569556720041466 C 2.61443532052498 -2.2526057681703757 2.600841097940274 -2.2057741857465727 2.5617086309314976 -2.1974886546346277 L 2.02070227453516 -2.0829411870119916 C 1.9815698075263832 -2.0746556559000466 1.9501616930509962 -2.1119588775451135 1.9296171478713884 -2.1076089737113426 C 1.9208123427944137 -2.1057447292111546 1.9146429556150473 -2.0962611295870106 1.9175428915042279 -2.0825647661339386 L 1.9539992283967849 -1.9103819112953213 C 1.9568991642859654 -1.8966855478422495 1.9663827639101097 -1.890516160662883 1.9751875689870846 -1.8923804051630706 C 1.9957321141666924 -1.8967303089968417 2.009326336751398 -1.9435618914206447 2.048458803760175 -1.9518474225325897 Z M 1.979745488789019 -1.6525054904257388 C 1.9795302042831924 -1.6365069388481255 1.9893678356398308 -1.624373472348774 2.0043664777438432 -1.6241716431245616 C 2.0273643956366625 -1.6238621716474362 2.051940800112491 -1.666535352253532 2.072938899058108 -1.6662527913396348 L 2.4019091158727806 -1.6618260036885775 L 2.005226816387995 -1.4651456709771877 C 1.9871073483286528 -1.456388680783835 1.9770140666213454 -1.4495238672847708 1.9766507740177632 -1.4225263114975484 L 1.9758030912760713 -1.3595320146606964 C 1.9755070750805601 -1.3375340062414782 1.9893174337683734 -1.3233468996684683 2.010315532713991 -1.323064338754571 L 2.629259496872903 -1.314735519435409 C 2.669255875816936 -1.3141973081708427 2.6916752166003466 -1.2708917293288815 2.7126733155459637 -1.270609168414984 C 2.721672500808371 -1.270488070880457 2.7297794188500912 -1.2783797044163503 2.7299677927926895 -1.2923784370467617 L 2.73226864594871 -1.4633629570325033 C 2.7324570198913083 -1.477361689662915 2.7245653863554145 -1.4854686077046346 2.715566201093007 -1.4855897052391622 C 2.6945681021473895 -1.4858722661530595 2.670991607145162 -1.4431856302653494 2.630995228201129 -1.4437238415299156 L 2.277027274546436 -1.4484870112213266 L 2.703693402957632 -1.6437637760106911 C 2.717772867277729 -1.649574858909698 2.7348655153002417 -1.656345485437463 2.7352826290302805 -1.6873426791190886 L 2.7368972628239794 -1.807331815951188 C 2.7370856367665777 -1.8213305485815996 2.729194003230684 -1.8294374666233193 2.7201948179682764 -1.8295585641578467 C 2.6991967190226593 -1.8298411250717441 2.6756202240204314 -1.787154489184034 2.6356238450763985 -1.7876927004486003 L 2.082673906175141 -1.7951334711812281 C 2.042677527231108 -1.7956716824457943 2.0202581864476974 -1.8389772612877555 1.99926008750208 -1.8392598222016527 C 1.9902609022396727 -1.8393809197361801 1.9821539841979527 -1.8314892862002867 1.9819656102553547 -1.8174905535698753 Z M 2.379014797665062 -0.8310773429272177 C 2.3684705932746613 -0.8342109915631449 2.3582381866522475 -0.8278629324334912 2.355959169462482 -0.8201944201495632 C 2.352540643677834 -0.8086916517236712 2.381124119958646 -0.7188251680731785 2.3880688540050072 -0.7000696177206747 C 2.391541221028188 -0.6906918425444226 2.395479409759481 -0.6863917646943464 2.4098578702918463 -0.6821186074635366 L 2.4922943773440718 -0.65761917267356 C 2.531595502799203 -0.645939209576013 2.5813331501676693 -0.6728866850468267 2.598140901942188 -0.7294419631407956 L 2.6499885430093477 -0.9039006176001573 C 2.665371909040263 -0.9556630755166712 2.652129207215044 -1.0023710068385392 2.604201005440494 -1.016614864274572 L 2.025228328003931 -1.1886806621018493 C 1.9773001262293812 -1.2029245195378822 1.9406974982090681 -1.1710301999494883 1.9253141321781526 -1.1192677420329744 L 1.8691933338801832 -0.9304306270412477 C 1.851815827808223 -0.8719582208762968 1.88125018564746 -0.8235679472813713 1.917675618996118 -0.8127426156299863 L 2.2330431866726563 -0.7190180337008899 C 2.2455045191340393 -0.7153146307675213 2.255167171459012 -0.7197455618261931 2.2585856972436598 -0.7312483302520851 C 2.2639983630693523 -0.749461046926414 2.2497125854631066 -0.8663751887493127 2.24504686860651 -0.8927992513857447 C 2.2427140101782124 -0.9060112827039606 2.2389567660063108 -0.9144304938447215 2.225536869509437 -0.9184187739268107 L 2.140224670350738 -0.9437728401629493 C 2.127763337889355 -0.9474762430963178 2.1178158084156617 -0.9420867480021551 2.115251914077176 -0.9334596716827361 C 2.1112636339950868 -0.9200397751858621 2.1159293508516828 -0.8936157125494303 2.1159293508516828 -0.8936157125494303 L 1.984606077989416 -0.9326438819241604 L 2.015942564348688 -1.0380859258281703 C 2.017936704389733 -1.0447958740766072 2.0253973514950028 -1.0488379953972293 2.0321072997434397 -1.0468438553561845 L 2.520016393808358 -0.9018413866573699 C 2.5267263420567954 -0.8998472466163253 2.5307684633774175 -0.8923865995110554 2.5287743233363726 -0.8856766512626184 L 2.50171099420791 -0.7946130678909735 Z" fill="#000000" fill-rule="nonzero"></path></g><g><path d=" M -2.137114461263021 0.2791666666666667 L -2.137114461263021 0.2725 L -2.1037811279296874 0.25583333333333336 L -2.1037811279296874 0.02749999999999997 L -2.137114461263021 0.010833333333333306 L -2.137114461263021 0.004166666666666652 L -2.0150311279296877 0.004166666666666652 Q -1.9691977945963541 0.004166666666666652 -1.9366977945963542 0.02041666666666664 Q -1.9041977945963542 0.03666666666666665 -1.8873227945963542 0.065 Q -1.8704477945963542 0.09333333333333332 -1.8704477945963542 0.12916666666666665 Q -1.8704477945963542 0.16166666666666668 -1.8814894612630209 0.18916666666666665 Q -1.8925311279296875 0.21666666666666667 -1.9125311279296875 0.23666666666666666 Q -1.9325311279296875 0.25666666666666665 -1.9594061279296875 0.2679166666666667 Q -1.9862811279296875 0.2791666666666667 -2.017947794596354 0.2791666666666667 L -2.137114461263021 0.2791666666666667 Z M -2.024614461263021 0.027083333333333348 L -2.0662811279296873 0.027083333333333348 L -2.0662811279296873 0.25625 L -2.0183644612630207 0.25625 Q -1.9850311279296875 0.25625 -1.9606561279296875 0.24229166666666668 Q -1.9362811279296874 0.22833333333333333 -1.9231561279296876 0.20270833333333332 Q -1.9100311279296875 0.17708333333333331 -1.9100311279296875 0.14208333333333334 Q -1.9100311279296875 0.10749999999999998 -1.923364461263021 0.08145833333333333 Q -1.9366977945963542 0.05541666666666667 -1.9623227945963542 0.04124999999999998 Q -1.9879477945963542 0.027083333333333348 -2.024614461263021 0.027083333333333348 Z M -1.81004638671875 0.2791666666666667 L -1.81004638671875 0.2725 L -1.7767130533854167 0.25583333333333336 L -1.7767130533854167 0.02749999999999997 L -1.81004638671875 0.010833333333333306 L -1.81004638671875 0.004166666666666652 L -1.70254638671875 0.004166666666666652 Q -1.65879638671875 0.004166666666666652 -1.6335880533854166 0.022291666666666654 Q -1.6083797200520833 0.040416666666666656 -1.6083797200520833 0.07208333333333333 Q -1.6083797200520833 0.09541666666666665 -1.6242130533854167 0.11395833333333333 Q -1.64004638671875 0.1325 -1.66629638671875 0.14208333333333334 L -1.5871297200520833 0.2575 L -1.5596297200520832 0.2725 L -1.5596297200520832 0.2791666666666667 L -1.6196297200520833 0.2791666666666667 L -1.7004630533854166 0.15291666666666667 L -1.7392130533854167 0.15291666666666667 L -1.7392130533854167 0.2554166666666667 L -1.7079630533854167 0.2725 L -1.7079630533854167 0.2791666666666667 L -1.81004638671875 0.2791666666666667 Z M -1.7121297200520833 0.027083333333333348 L -1.7392130533854167 0.027083333333333348 L -1.7392130533854167 0.13 L -1.7096297200520834 0.13 Q -1.6833797200520833 0.13 -1.6660880533854165 0.11520833333333333 Q -1.6487963867187498 0.10041666666666665 -1.6487963867187498 0.07749999999999999 Q -1.6487963867187498 0.05416666666666667 -1.6658797200520832 0.040624999999999994 Q -1.6829630533854165 0.027083333333333348 -1.7121297200520833 0.027083333333333348 Z M -1.5284006754557293 0.2791666666666667 L -1.5284006754557293 0.2725 L -1.495067342122396 0.25583333333333336 L -1.495067342122396 0.02749999999999997 L -1.5284006754557293 0.010833333333333306 L -1.5284006754557293 0.004166666666666652 L -1.4242340087890626 0.004166666666666652 L -1.4242340087890626 0.010833333333333306 L -1.4575673421223958 0.02749999999999997 L -1.4575673421223958 0.25583333333333336 L -1.4242340087890626 0.2725 L -1.4242340087890626 0.2791666666666667 L -1.5284006754557293 0.2791666666666667 Z M -1.242586669921875 0.28125 L -1.347586669921875 0.025416666666666643 L -1.376336669921875 0.010833333333333306 L -1.376336669921875 0.004166666666666652 L -1.2721700032552086 0.004166666666666652 L -1.2721700032552086 0.010833333333333306 L -1.3080033365885417 0.026249999999999996 L -1.3080033365885417 0.02833333333333332 L -1.230086669921875 0.21916666666666668 L -1.2280033365885419 0.21916666666666668 L -1.1505033365885418 0.026666666666666672 L -1.1505033365885418 0.024999999999999967 L -1.1846700032552084 0.010833333333333306 L -1.1846700032552084 0.004166666666666652 L -1.0971700032552085 0.004166666666666652 L -1.0971700032552085 0.010833333333333306 L -1.1209200032552085 0.023333333333333317 L -1.2280033365885419 0.28125 L -1.242586669921875 0.28125 Z M -1.0513407389322917 0.2791666666666667 L -1.0513407389322917 0.2725 L -1.0180074055989585 0.25583333333333336 L -1.0180074055989585 0.02749999999999997 L -1.0513407389322917 0.010833333333333306 L -1.0513407389322917 0.004166666666666652 L -0.8475907389322918 0.004166666666666652 L -0.8475907389322918 0.07583333333333334 L -0.8542574055989585 0.07583333333333334 L -0.8800907389322917 0.027083333333333348 L -0.9805074055989584 0.027083333333333348 L -0.9805074055989584 0.12583333333333332 L -0.9096740722656251 0.12583333333333332 L -0.8888407389322918 0.09125 L -0.882174072265625 0.09125 L -0.882174072265625 0.1825 L -0.8888407389322918 0.1825 L -0.9096740722656251 0.14875 L -0.9805074055989584 0.14875 L -0.9805074055989584 0.25625 L -0.8684240722656251 0.25625 L -0.8425907389322917 0.20333333333333334 L -0.835924072265625 0.20333333333333334 L -0.835924072265625 0.2791666666666667 L -1.0513407389322917 0.2791666666666667 Z M -0.77760009765625 0.2791666666666667 L -0.77760009765625 0.2725 L -0.7442667643229167 0.25583333333333336 L -0.7442667643229167 0.02833333333333332 L -0.7771834309895834 0.010833333333333306 L -0.7771834309895834 0.004166666666666652 L -0.7159334309895834 0.004166666666666652 L -0.5567667643229167 0.20416666666666666 L -0.5567667643229167 0.026666666666666672 L -0.5984334309895833 0.010833333333333306 L -0.5984334309895833 0.004166666666666652 L -0.4946834309895834 0.004166666666666652 L -0.4946834309895834 0.010833333333333306 L -0.52760009765625 0.027083333333333348 L -0.52760009765625 0.28125 L -0.5430167643229167 0.28125 L -0.71510009765625 0.06416666666666665 L -0.71510009765625 0.25625 L -0.6734334309895834 0.2725 L -0.6734334309895834 0.2791666666666667 L -0.77760009765625 0.2791666666666667 Z M -0.3301462809244792 0.2791666666666667 L -0.3301462809244792 0.2725 L -0.29681294759114585 0.25583333333333336 L -0.29681294759114585 0.02749999999999997 L -0.3301462809244792 0.010833333333333306 L -0.3301462809244792 0.004166666666666652 L -0.22472961425781252 0.004166666666666652 Q -0.19722961425781252 0.004166666666666652 -0.1753546142578125 0.011041666666666672 Q -0.1534796142578125 0.017916666666666636 -0.1409796142578125 0.03145833333333334 Q -0.1284796142578125 0.044999999999999984 -0.1284796142578125 0.06583333333333333 Q -0.1284796142578125 0.08708333333333332 -0.14264628092447917 0.10479166666666667 Q -0.15681294759114583 0.1225 -0.1834796142578125 0.13 Q -0.14639628092447918 0.135 -0.12556294759114583 0.153125 Q -0.10472961425781252 0.17125 -0.10472961425781252 0.19916666666666666 Q -0.10472961425781252 0.22208333333333333 -0.11910461425781252 0.24020833333333333 Q -0.13347961425781252 0.25833333333333336 -0.1584796142578125 0.26875 Q -0.1834796142578125 0.2791666666666667 -0.21514628092447918 0.2791666666666667 L -0.3301462809244792 0.2791666666666667 Z M -0.23431294759114585 0.027083333333333348 L -0.25931294759114587 0.027083333333333348 L -0.25931294759114587 0.12583333333333332 L -0.23181294759114585 0.12583333333333332 Q -0.20222961425781252 0.12583333333333332 -0.18556294759114583 0.113125 Q -0.16889628092447917 0.10041666666666665 -0.16889628092447917 0.07749999999999999 Q -0.16889628092447917 0.027083333333333348 -0.23431294759114585 0.027083333333333348 Z M -0.2184796142578125 0.14875 L -0.25931294759114587 0.14875 L -0.25931294759114587 0.25625 L -0.21556294759114586 0.25625 Q -0.18264628092447918 0.25625 -0.16389628092447917 0.24125000000000002 Q -0.14514628092447918 0.22625 -0.14514628092447918 0.2025 Q -0.14514628092447918 0.17416666666666666 -0.1641046142578125 0.16145833333333331 Q -0.18306294759114586 0.14875 -0.2184796142578125 0.14875 Z M 0.003574422200520816 0.2791666666666667 L 0.003574422200520816 0.2725 L 0.04107442220052082 0.25583333333333336 L 0.04107442220052082 0.15083333333333332 L -0.051425577799479184 0.024583333333333346 L -0.07684224446614585 0.010833333333333306 L -0.07684224446614585 0.004166666666666652 L 0.023991088867187482 0.004166666666666652 L 0.023991088867187482 0.010833333333333306 L -0.006425577799479179 0.025416666666666643 L -0.006425577799479179 0.027083333333333348 L 0.06815775553385417 0.12833333333333333 L 0.1352410888671875 0.02749999999999997 L 0.1352410888671875 0.02583333333333332 L 0.10482442220052082 0.010833333333333306 L 0.10482442220052082 0.004166666666666652 L 0.19315775553385417 0.004166666666666652 L 0.19315775553385417 0.010833333333333306 L 0.1664910888671875 0.024583333333333346 L 0.07857442220052083 0.15041666666666667 L 0.07857442220052083 0.25583333333333336 L 0.11607442220052083 0.2725 L 0.11607442220052083 0.2791666666666667 L 0.003574422200520816 0.2791666666666667 Z M 0.3472808837890625 0.2791666666666667 L 0.3472808837890625 0.2725 L 0.38061421712239585 0.25583333333333336 L 0.38061421712239585 0.02749999999999997 L 0.3472808837890625 0.010833333333333306 L 0.3472808837890625 0.004166666666666652 L 0.45561421712239586 0.004166666666666652 Q 0.5047808837890625 0.004166666666666652 0.5345725504557292 0.022083333333333344 Q 0.5643642171223958 0.03999999999999998 0.5643642171223958 0.07874999999999999 Q 0.5643642171223958 0.10166666666666666 0.5487392171223958 0.11937500000000001 Q 0.5331142171223958 0.13708333333333333 0.5062392171223958 0.1475 Q 0.47936421712239585 0.15791666666666665 0.44561421712239585 0.15791666666666665 L 0.4181142171223958 0.15791666666666665 L 0.4181142171223958 0.25583333333333336 L 0.45561421712239586 0.2725 L 0.45561421712239586 0.2791666666666667 L 0.3472808837890625 0.2791666666666667 Z M 0.4181142171223958 0.027083333333333348 L 0.4181142171223958 0.135 L 0.4535308837890625 0.135 Q 0.4864475504557292 0.135 0.5051975504557292 0.12020833333333333 Q 0.5239475504557292 0.10541666666666666 0.5239475504557292 0.08208333333333334 Q 0.5239475504557292 0.05291666666666667 0.5049892171223959 0.03999999999999998 Q 0.4860308837890625 0.027083333333333348 0.45061421712239585 0.027083333333333348 L 0.4181142171223958 0.027083333333333348 Z M 0.5705818684895834 0.2791666666666667 L 0.5705818684895834 0.2725 L 0.59724853515625 0.25875000000000004 L 0.7039152018229167 0.002083333333333326 L 0.7226652018229167 0.002083333333333326 L 0.8276652018229167 0.2575 L 0.8555818684895833 0.2725 L 0.8555818684895833 0.2791666666666667 L 0.75224853515625 0.2791666666666667 L 0.75224853515625 0.2725 L 0.7889152018229166 0.25833333333333336 L 0.7576652018229166 0.18125 L 0.6564152018229167 0.18125 L 0.6255818684895833 0.25833333333333336 L 0.6605818684895833 0.2725 L 0.6605818684895833 0.2791666666666667 L 0.5705818684895834 0.2791666666666667 Z M 0.66599853515625 0.15833333333333333 L 0.74849853515625 0.15833333333333333 L 0.70724853515625 0.05583333333333332 L 0.66599853515625 0.15833333333333333 Z M 0.9834731038411458 0.2833333333333333 Q 0.9576397705078126 0.2833333333333333 0.9397231038411459 0.2785416666666667 Q 0.9218064371744792 0.27375 0.9026397705078125 0.26416666666666666 L 0.8984731038411459 0.19583333333333333 L 0.9051397705078125 0.19583333333333333 L 0.9255564371744792 0.24 Q 0.9405564371744792 0.2525 0.9547231038411459 0.258125 Q 0.9688897705078126 0.26375 0.9834731038411458 0.26375 Q 1.0080564371744791 0.26375 1.0220147705078126 0.25083333333333335 Q 1.035973103841146 0.23791666666666667 1.035973103841146 0.21583333333333332 Q 1.035973103841146 0.1975 1.0278481038411458 0.18708333333333332 Q 1.0197231038411458 0.17666666666666667 1.0045147705078126 0.16854166666666667 Q 0.9893064371744792 0.16041666666666665 0.9684731038411458 0.15 Q 0.9488897705078125 0.13999999999999999 0.9351397705078125 0.13041666666666665 Q 0.9213897705078126 0.12083333333333332 0.9143064371744791 0.108125 Q 0.9072231038411458 0.09541666666666665 0.9072231038411458 0.07624999999999998 Q 0.9072231038411458 0.062083333333333324 0.9140981038411459 0.04854166666666665 Q 0.9209731038411458 0.035 0.9328481038411458 0.023958333333333304 Q 0.9447231038411459 0.012916666666666632 0.9595147705078125 0.006458333333333344 Q 0.9743064371744792 0 0.9901397705078125 0 Q 1.009306437174479 0 1.0255564371744792 0.004583333333333328 Q 1.041806437174479 0.009166666666666656 1.0588897705078124 0.017500000000000016 L 1.0630564371744793 0.08416666666666667 L 1.0563897705078125 0.08416666666666667 L 1.037223103841146 0.040416666666666656 Q 1.0226397705078125 0.029583333333333323 1.0118064371744793 0.024791666666666656 Q 1.0009731038411458 0.020000000000000018 0.9868064371744791 0.020000000000000018 Q 0.9684731038411458 0.020000000000000018 0.9565981038411459 0.0325 Q 0.9447231038411459 0.044999999999999984 0.9447231038411459 0.06333333333333332 Q 0.9447231038411459 0.08458333333333332 0.9576397705078126 0.09645833333333334 Q 0.9705564371744791 0.10833333333333334 0.9980564371744792 0.12166666666666667 Q 1.023473103841146 0.13416666666666666 1.0397231038411459 0.14479166666666665 Q 1.055973103841146 0.15541666666666665 1.0638897705078125 0.1691666666666667 Q 1.071806437174479 0.18291666666666667 1.071806437174479 0.20416666666666666 Q 1.071806437174479 0.22375 1.0634731038411458 0.23854166666666668 Q 1.0551397705078125 0.25333333333333335 1.0420147705078124 0.26333333333333336 Q 1.0288897705078126 0.2733333333333333 1.0132647705078126 0.2783333333333333 Q 0.9976397705078125 0.2833333333333333 0.9834731038411458 0.2833333333333333 Z M 1.2088667805989586 0.2833333333333333 Q 1.1830334472656252 0.2833333333333333 1.1651167805989584 0.2785416666666667 Q 1.1472001139322918 0.27375 1.128033447265625 0.26416666666666666 L 1.1238667805989584 0.19583333333333333 L 1.1305334472656252 0.19583333333333333 L 1.1509501139322917 0.24 Q 1.1659501139322919 0.2525 1.1801167805989585 0.258125 Q 1.1942834472656252 0.26375 1.2088667805989586 0.26375 Q 1.2334501139322918 0.26375 1.247408447265625 0.25083333333333335 Q 1.2613667805989586 0.23791666666666667 1.2613667805989586 0.21583333333333332 Q 1.2613667805989586 0.1975 1.2532417805989584 0.18708333333333332 Q 1.2451167805989585 0.17666666666666667 1.2299084472656252 0.16854166666666667 Q 1.2147001139322917 0.16041666666666665 1.1938667805989585 0.15 Q 1.1742834472656252 0.13999999999999999 1.1605334472656252 0.13041666666666665 Q 1.146783447265625 0.12083333333333332 1.1397001139322918 0.108125 Q 1.1326167805989584 0.09541666666666665 1.1326167805989584 0.07624999999999998 Q 1.1326167805989584 0.062083333333333324 1.1394917805989584 0.04854166666666665 Q 1.1463667805989586 0.035 1.1582417805989584 0.023958333333333304 Q 1.1701167805989585 0.012916666666666632 1.184908447265625 0.006458333333333344 Q 1.1997001139322918 0 1.2155334472656252 0 Q 1.2347001139322917 0 1.2509501139322918 0.004583333333333328 Q 1.267200113932292 0.009166666666666656 1.2842834472656253 0.017500000000000016 L 1.288450113932292 0.08416666666666667 L 1.281783447265625 0.08416666666666667 L 1.2626167805989585 0.040416666666666656 Q 1.2480334472656252 0.029583333333333323 1.237200113932292 0.024791666666666656 Q 1.2263667805989584 0.020000000000000018 1.2122001139322918 0.020000000000000018 Q 1.1938667805989585 0.020000000000000018 1.1819917805989584 0.0325 Q 1.1701167805989585 0.044999999999999984 1.1701167805989585 0.06333333333333332 Q 1.1701167805989585 0.08458333333333332 1.1830334472656252 0.09645833333333334 Q 1.195950113932292 0.10833333333333334 1.2234501139322917 0.12166666666666667 Q 1.2488667805989584 0.13416666666666666 1.2651167805989585 0.14479166666666665 Q 1.2813667805989586 0.15541666666666665 1.2892834472656252 0.1691666666666667 Q 1.2972001139322917 0.18291666666666667 1.2972001139322917 0.20416666666666666 Q 1.2972001139322917 0.22375 1.2888667805989584 0.23854166666666668 Q 1.2805334472656251 0.25333333333333335 1.267408447265625 0.26333333333333336 Q 1.2542834472656252 0.2733333333333333 1.2386584472656252 0.2783333333333333 Q 1.2230334472656252 0.2833333333333333 1.2088667805989586 0.2833333333333333 Z M 1.3534271240234375 0.2791666666666667 L 1.3534271240234375 0.2725 L 1.386760457356771 0.25583333333333336 L 1.386760457356771 0.02749999999999997 L 1.3534271240234375 0.010833333333333306 L 1.3534271240234375 0.004166666666666652 L 1.4575937906901042 0.004166666666666652 L 1.4575937906901042 0.010833333333333306 L 1.424260457356771 0.02749999999999997 L 1.424260457356771 0.25583333333333336 L 1.4575937906901042 0.2725 L 1.4575937906901042 0.2791666666666667 L 1.3534271240234375 0.2791666666666667 Z M 1.658824462890625 0.2833333333333333 Q 1.628824462890625 0.2833333333333333 1.6036161295572917 0.27270833333333333 Q 1.5784077962239582 0.26208333333333333 1.5596577962239584 0.243125 Q 1.5409077962239583 0.22416666666666668 1.5304911295572916 0.19833333333333333 Q 1.5200744628906249 0.1725 1.5200744628906249 0.14166666666666666 Q 1.5200744628906249 0.11083333333333334 1.5304911295572916 0.08499999999999999 Q 1.5409077962239583 0.05916666666666667 1.5596577962239584 0.04020833333333332 Q 1.5784077962239582 0.02124999999999999 1.6036161295572917 0.010624999999999996 Q 1.628824462890625 0 1.658824462890625 0 Q 1.688824462890625 0 1.7142411295572917 0.010624999999999996 Q 1.7396577962239583 0.02124999999999999 1.7584077962239584 0.04020833333333332 Q 1.7771577962239582 0.05916666666666667 1.787574462890625 0.08499999999999999 Q 1.7979911295572917 0.11083333333333334 1.7979911295572917 0.14166666666666666 Q 1.7979911295572917 0.1725 1.787574462890625 0.19833333333333333 Q 1.7771577962239582 0.22416666666666668 1.7584077962239584 0.243125 Q 1.7396577962239583 0.26208333333333333 1.7142411295572917 0.27270833333333333 Q 1.688824462890625 0.2833333333333333 1.658824462890625 0.2833333333333333 Z M 1.667574462890625 0.2625 Q 1.6942411295572917 0.2625 1.714449462890625 0.24916666666666668 Q 1.7346577962239582 0.23583333333333334 1.7461161295572918 0.21166666666666667 Q 1.757574462890625 0.1875 1.757574462890625 0.15458333333333335 Q 1.757574462890625 0.11416666666666667 1.7434077962239583 0.08395833333333333 Q 1.7292411295572916 0.05374999999999999 1.7052827962239583 0.03708333333333333 Q 1.681324462890625 0.02041666666666664 1.6517411295572917 0.02041666666666664 Q 1.625074462890625 0.02041666666666664 1.604449462890625 0.033541666666666664 Q 1.583824462890625 0.04666666666666666 1.5721577962239583 0.07083333333333333 Q 1.5604911295572916 0.095 1.5604911295572916 0.12791666666666665 Q 1.5604911295572916 0.16833333333333333 1.5748661295572917 0.19874999999999998 Q 1.5892411295572917 0.22916666666666669 1.6134077962239584 0.24583333333333335 Q 1.637574462890625 0.2625 1.667574462890625 0.2625 Z M 1.8563018798828124 0.2791666666666667 L 1.8563018798828124 0.2725 L 1.8896352132161458 0.25583333333333336 L 1.8896352132161458 0.02833333333333332 L 1.856718546549479 0.010833333333333306 L 1.856718546549479 0.004166666666666652 L 1.9179685465494791 0.004166666666666652 L 2.077135213216146 0.20416666666666666 L 2.077135213216146 0.026666666666666672 L 2.0354685465494793 0.010833333333333306 L 2.0354685465494793 0.004166666666666652 L 2.139218546549479 0.004166666666666652 L 2.139218546549479 0.010833333333333306 L 2.1063018798828126 0.027083333333333348 L 2.1063018798828126 0.28125 L 2.0908852132161457 0.28125 L 1.9188018798828124 0.06416666666666665 L 1.9188018798828124 0.25625 L 1.960468546549479 0.2725 L 1.960468546549479 0.2791666666666667 L 1.8563018798828124 0.2791666666666667 Z" fill="#ff6300" fill-rule="nonzero"></path></g><g clip-path="url(&quot;#SvgjsClipPath1001&quot;)"><g clip-path="url(&quot;#SvgjsClipPath1000&quot;)"><path d=" M 0.9949410580533379 -2.8924955643518704 L -1.3058575153111631 -2.8924955643518704 L -1.3058575153111631 -0.5916969909873693 L 0.9949410580533379 -0.5916969909873693 Z M -1.3991380490407073 -2.9857760980814145 L -1.3991380490407073 -0.4984164572578256 L 1.0882215917828817 -0.4984164572578256 L 1.0882215917828817 -2.9857760980814145 Z" fill="#000000" transform="matrix(1,0,0,1,0,0)" fill-rule="evenodd"></path></g><g clip-path="url(&quot;#SvgjsClipPath1000&quot;)"><path d=" M 1.305857515311164 -2.5815791070940444 L -0.9949410580533372 -2.5815791070940444 L -0.9949410580533372 -0.28078053372954326 L 1.305857515311164 -0.28078053372954326 Z M -1.0882215917828812 -2.6748596408235885 L -1.0882215917828812 -0.18749999999999956 L 1.3991380490407077 -0.18749999999999956 L 1.3991380490407077 -2.6748596408235885 Z" fill="#000000" transform="matrix(1,0,0,1,0,0)" fill-rule="evenodd"></path></g><path d=" M -0.2350801840292176 -1.8750759054507173 C -0.31772274178937376 -1.8310513653354938 -0.3926416960205435 -1.772351978515196 -0.45983704672272663 -1.6989777449898238 C -0.4513410828408414 -1.6719451326383707 -0.4389833171944629 -1.6431747094928957 -0.4227637497835911 -1.6126664755533988 C -0.4065441823727193 -1.582158241613902 -0.3895522546089488 -1.5495260167039335 -0.37178796649227974 -1.514769800823494 C -0.3246739849654617 -1.4267207205930472 -0.29107630961437014 -1.3514155861854282 -0.27099494043900507 -1.288854397600637 L -0.3683123449042358 -1.133609966668007 C -0.5127437308962846 -1.1714556239600413 -0.6409555494774615 -1.2243623081335993 -0.7529478006477668 -1.292330019188681 C -0.7877040165282063 -1.3139561090698435 -0.8220740522321965 -1.3363545593039046 -0.8560579077597373 -1.3595253698908643 L -0.7784356922934224 -1.5008673144713183 C -0.6610369186528267 -1.4197694774169594 -0.5536788295999133 -1.3602977302437629 -0.45636142513468264 -1.3224520729517286 C -0.4748980736042504 -1.3680213337727494 -0.502703046308602 -1.4230520089167786 -0.5397763432477376 -1.4875440983838164 C -0.576849640186873 -1.5520361878508542 -0.6036891624501013 -1.6006948900834697 -0.6202949100374224 -1.6335202050816626 C -0.6369006576247436 -1.6663455200798554 -0.6498376935357961 -1.6989777449898238 -0.65910601777058 -1.7314168798115672 C -0.6112196758908632 -1.790888626984764 -0.5502032080118694 -1.8495880138050618 -0.4760566141335984 -1.907515040272461 C -0.4080889030785166 -1.9608079046224682 -0.34321063343502944 -2.0021291835025465 -0.281421805203137 -2.0314788769126952 L -0.05782348303897589 -1.8820271486268054 C -0.07249832974405035 -1.8163765186304195 -0.10609600509514194 -1.734892501399611 -0.15861650909225056 -1.6375750969343805 C -0.17174663509152777 -1.6128595656416236 -0.1833320403850076 -1.5931643766427077 -0.1933727249726901 -1.5784895299376331 L -0.3323975884944483 -1.6584288264626443 C -0.301503174378502 -1.7078598890481582 -0.2690640395567584 -1.7800755820441827 -0.2350801840292176 -1.8750759054507173 Z" fill="#ff6300" transform="matrix(1,0,0,1,0,0)" fill-rule="nonzero"></path><path d=" M -0.0667448108085733 -1.301598343423465 C -0.01808610857595794 -1.4112735135350742 0.024779891009917492 -1.4977778730597238 0.06185318794905301 -1.5611114219974134 C 0.12364201618094553 -1.6653800696387322 0.19045118670667932 -1.7611527533981657 0.2622806995262544 -1.8484294732757136 C 0.2028089523530578 -1.856925437157599 0.1545364302968918 -1.8611734190985416 0.11746313335775627 -1.8611734190985416 L 0.1672803761197196 -1.9990397420909516 C 0.2599636184675584 -1.9951779403264585 0.3491712392273532 -1.9861027061798993 0.4349032383991041 -1.971814039651274 C 0.520635237570855 -1.9575253731226487 0.6044363358603593 -1.9326167517416672 0.6863065332676168 -1.897088175508329 L 0.7546604244991478 -1.7418437445756991 C 0.7175871275600123 -1.5850545929372717 0.6353307499763055 -1.4552980536502975 0.5078912917480272 -1.3525741267147762 C 0.39049251810743135 -1.2583461636611402 0.24837821317407854 -1.195784975076349 0.08154837694796875 -1.1648905609604028 L -0.0667448108085733 -1.301598343423465 Z M 0.13715832235667202 -1.3375130998332525 C 0.2421993303508893 -1.3676351535963 0.3352687528751774 -1.41938329724051 0.41636658992953635 -1.4927575307658825 C 0.5020985891012872 -1.569993566055748 0.5584808948628891 -1.6599735471684416 0.5855135072143421 -1.762697474103963 C 0.5028709494541859 -1.7974536899844025 0.40632590534185375 -1.824100122159406 0.2958783748773459 -1.8426367706289737 L 0.3978299414599686 -1.759221852515919 C 0.2896994920541567 -1.6225140700528566 0.2028089523530578 -1.4819444858253012 0.13715832235667202 -1.3375130998332525 Z" fill="#ff6300" transform="matrix(1,0,0,1,0,0)" fill-rule="nonzero"></path></g></g><defs><clipPath id="SvgjsClipPath1001"><path d=" M -1.3991380490407073 -2.9857760980814145 h 2.7982760980814145 v 2.7982760980814145 h -2.7982760980814145 Z"></path></clipPath><clipPath id="SvgjsClipPath1000"><path d=" M -1.3991380490407073 -2.9857760980814145 L 1.3991380490407077 -2.9857760980814145 L 1.3991380490407077 -0.18749999999999956 L -1.399138049040707 -0.18749999999999956 Z"></path></clipPath></defs></svg>